<?xml version="1.0" encoding="utf-8"?>
<!-- Generator: Adobe Illustrator 27.2.0, SVG Export Plug-In . SVG Version: 6.00 Build 0)  -->
<svg version="1.1" id="Layer_1" xmlns="http://www.w3.org/2000/svg" xmlns:xlink="http://www.w3.org/1999/xlink" x="0px" y="0px"
	 viewBox="0 0 64 64" style="enable-background:new 0 0 64 64;" xml:space="preserve">
<style type="text/css">
	.st0{fill:#CFD8FC;}
	.st1{fill:#1F3BA7;}
</style>
<circle class="st0" cx="33.2" cy="32.7" r="26"/>
<path class="st1" d="M59.1,24.4h-4.8c-0.1,0-0.3,0-0.4,0l-6.2-11.1H18.3l-6.2,11.1c0,0,0,0,0,0H7.3c-1.2,0-2.2,1.1-2.2,2.6v1.7
	c0,1.4,1,2.6,2.2,2.6h1.2c0,0.6,0,1.6,0,2.2v9.3c0,2.8,1.7,5.2,4,6v3.3c0,1.4,1,2.6,2.2,2.6h1.5c1.2,0,2.2-1.1,2.2-2.6v-3h29.5v3
	c0,1.4,1,2.6,2.2,2.6h1.5c1.2,0,2.2-1.1,2.2-2.6v-3.4c2.2-0.9,3.8-3.2,3.8-6v-9.3c0-0.7,0-1.7,0-2.2h1.7c1.2,0,2.2-1.1,2.2-2.6V27
	C61.3,25.5,60.3,24.4,59.1,24.4z M15.4,43.4c-1.6,0-2.9-1.5-2.9-3.4c0-1.9,1.3-3.4,2.9-3.4c1.6,0,2.9,1.5,2.9,3.4
	C18.3,41.8,17,43.4,15.4,43.4z M13.4,33c0-0.8,0-2.1,0-2.1l7.9-14h23.5l7.7,14c0,0,0,1.4,0,2.1H13.4z M50.7,43.4
	c-1.6,0-2.9-1.5-2.9-3.4c0-1.9,1.3-3.4,2.9-3.4s2.9,1.5,2.9,3.4C53.6,41.8,52.3,43.4,50.7,43.4z"/>
</svg>
