<?xml version="1.0" encoding="utf-8"?>
<!-- Generator: Adobe Illustrator 27.2.0, SVG Export Plug-In . SVG Version: 6.00 Build 0)  -->
<svg version="1.1" id="Layer_1" xmlns="http://www.w3.org/2000/svg" xmlns:xlink="http://www.w3.org/1999/xlink" x="0px" y="0px"
	 viewBox="0 0 64 64" style="enable-background:new 0 0 64 64;" xml:space="preserve">
<style type="text/css">
	.st0{fill:#CFD8FC;}
	.st1{fill:#1F3BA7;}
</style>
<circle class="st0" cx="33.2" cy="32.7" r="26"/>
<g>
	<polygon class="st1" points="8.2,16.6 57.6,16.6 32.9,4.3 	"/>
	<path class="st1" d="M21.2,50H20h-5.7h-1.2h-1.6v3.3H8.2v3.3h49.4v-3.3h-3.2V50h-1.6h-1.2h-5.7h-1.2h-1.2v1.3H22.5V50H21.2z
		 M43.4,56.6H22.5v-1.3h20.9V56.6z M43.4,52.6V54H22.5v-1.3H43.4z"/>
	<polygon class="st1" points="21.2,22.3 21.2,19.5 20,19.5 14.3,19.5 13.1,19.5 13.1,22.3 14.3,22.3 14.3,47.3 13.1,47.3 13.1,50 
		14.3,50 20,50 21.2,50 21.2,47.3 20,47.3 20,22.3 	"/>
	<polygon class="st1" points="52.8,22.3 52.8,19.5 51.6,19.5 45.8,19.5 44.6,19.5 44.6,22.3 45.8,22.3 45.8,47.3 44.6,47.3 44.6,50 
		45.8,50 51.6,50 52.8,50 52.8,47.3 51.6,47.3 51.6,22.3 	"/>
	<polygon class="st1" points="37,22.3 37,19.5 35.8,19.5 30.1,19.5 28.8,19.5 28.8,22.3 30.1,22.3 30.1,47.3 28.8,47.3 28.8,50 
		30.1,50 35.8,50 37,50 37,47.3 35.8,47.3 35.8,22.3 	"/>
	<polygon class="st1" points="8.2,19.5 13.1,19.5 14.3,19.5 20,19.5 21.2,19.5 28.8,19.5 30.1,19.5 35.8,19.5 37,19.5 44.6,19.5 
		45.8,19.5 51.6,19.5 52.8,19.5 57.6,19.5 57.6,17.5 8.2,17.5 	"/>
	<polygon class="st1" points="35.8,50 30.1,50 28.8,50 22.5,50 22.5,51.3 43.4,51.3 43.4,50 37,50 	"/>
	<rect x="22.5" y="52.6" class="st0" width="20.9" height="1.3"/>
	<rect x="22.5" y="55.3" class="st1" width="20.9" height="1.3"/>
</g>
</svg>
