<?xml version="1.0" encoding="utf-8"?>
<!-- Generator: Adobe Illustrator 27.0.0, SVG Export Plug-In . SVG Version: 6.00 Build 0)  -->
<svg version="1.1" id="Layer_1" xmlns="http://www.w3.org/2000/svg" xmlns:xlink="http://www.w3.org/1999/xlink" x="0px" y="0px"
	 viewBox="0 0 15.3 15.3" style="enable-background:new 0 0 15.3 15.3;" xml:space="preserve">
<style type="text/css">
	.st0{fill:#FFFFFF;}
</style>
<g>
	<path class="st0" d="M13,2.3c-1.4-1.4-3.3-2.2-5.3-2.2c-4.1,0-7.5,3.4-7.5,7.5c0,1.3,0.3,2.6,1,3.8l-1,2.8
		c-0.3,0.7,0.4,1.4,1.1,1.1l2.9-1c1.1,0.6,2.3,0.9,3.6,0.9h0c4.1,0,7.5-3.4,7.5-7.5C15.2,5.6,14.4,3.7,13,2.3z M7.6,13.7L7.6,13.7
		c-1.1,0-2.2-0.3-3.1-0.8l-0.2-0.1L2,13.3l0.6-2.2l-0.1-0.2c-0.6-1-0.9-2.1-0.9-3.2c0-3.3,2.7-6,6-6c1.6,0,3.1,0.6,4.3,1.8
		C13,4.5,13.7,6,13.7,7.6C13.7,10.9,11,13.7,7.6,13.7z"/>
	<path class="st0" d="M4,8L4,8C3.5,8,3.2,8.5,3.3,9c0.4,1.4,1.6,2.5,3,3c0.5,0.1,1-0.2,1-0.7l0,0c0-0.3-0.2-0.6-0.5-0.7
		c-1-0.3-1.7-1.1-2-2C4.6,8.3,4.3,8,4,8z M4,7.3L4,7.3c0.3,0,0.6-0.2,0.7-0.5c0.3-1,1.1-1.7,2-2C7,4.6,7.3,4.4,7.3,4l0,0
		c0-0.5-0.5-0.9-1-0.7c-1.4,0.4-2.5,1.6-3,3C3.2,6.8,3.5,7.3,4,7.3z M11.3,7.3L11.3,7.3c0.5,0,0.9-0.5,0.7-1c-0.4-1.4-1.6-2.5-3-3
		C8.5,3.2,8,3.5,8,4l0,0c0,0.3,0.2,0.6,0.5,0.7c1,0.3,1.7,1.1,2,2C10.7,7.1,10.9,7.3,11.3,7.3z M8,11.3L8,11.3c0,0.5,0.5,0.9,1,0.7
		c1.4-0.4,2.5-1.6,3-3c0.1-0.5-0.2-1-0.7-1l0,0c-0.3,0-0.6,0.2-0.7,0.5c-0.3,1-1.1,1.7-2,2C8.2,10.7,8,11,8,11.3z"/>
</g>
</svg>
