<?xml version="1.0" encoding="UTF-8"?>
<svg width="20px" height="14px" viewBox="0 0 20 14" version="1.1" xmlns="http://www.w3.org/2000/svg" xmlns:xlink="http://www.w3.org/1999/xlink">
    <!-- Generator: Sketch 61.2 (89653) - https://sketch.com -->
    <title>np_email_1414190_000000</title>
    <desc>Created with Sketch.</desc>
    <g id="Symbols" stroke="none" stroke-width="1" fill="none" fill-rule="evenodd">
        <g id="Social-/-Email-Copy" transform="translate(-10.000000, -13.000000)" fill="#FFFFFF">
            <g id="np_email_1414190_000000" transform="translate(10.000000, 13.000000)">
                <g id="Group">
                    <polygon id="Path" points="1.72477667 0.1204 10.1247767 7.58706667 18.5247767 0.1204"></polygon>
                    <path d="M10.5234611,8.76107523 C10.5197291,8.76480072 10.5145045,8.76554597 10.5107727,8.76927146 C10.4600203,8.81099748 10.4055345,8.84303733 10.3465699,8.86539103 C10.3353742,8.86986177 10.3241782,8.8728422 10.3129834,8.87656769 C10.2517813,8.89594 10.1890851,8.90935337 10.1256437,8.90935337 L10.1248974,8.90935337 L10.1241511,8.90935337 C10.0607097,8.90935337 9.99801351,8.89594134 9.93755857,8.87656769 C9.92636313,8.8728422 9.91442175,8.86986177 9.90397207,8.86539103 C9.84500939,8.84229342 9.78977643,8.81025356 9.73976926,8.76852755 C9.73603745,8.76554712 9.7308128,8.76480187 9.72708099,8.76107638 L0.791443333,1.05373333 L0.791443333,12.5783151 C0.791443333,12.914355 1.06387271,13.1870667 1.40122809,13.1870667 L18.8483252,13.1870667 C19.1849354,13.1870667 19.45811,12.914355 19.45811,12.5783151 L19.45811,1.05373333 L10.5234611,8.76107523 Z" id="Path"></path>
                </g>
            </g>
        </g>
    </g>
</svg>