<?xml version="1.0" encoding="utf-8"?>
<!-- Generator: Adobe Illustrator 26.0.1, SVG Export Plug-In . SVG Version: 6.00 Build 0)  -->
<svg version="1.1" id="Capa_1" xmlns="http://www.w3.org/2000/svg" xmlns:xlink="http://www.w3.org/1999/xlink" x="0px" y="0px"
	 viewBox="0 0 20 14" style="enable-background:new 0 0 20 14;" xml:space="preserve">
<style type="text/css">
	.st0{fill-rule:evenodd;clip-rule:evenodd;fill:#3A73B8;}
</style>
<desc>Created with Sketch.</desc>
<g id="Symbols">
	<g id="Social-_x2F_-Email-Copy" transform="translate(-10.000000, -13.000000)">
		<g id="np_email_1414190_000000" transform="translate(10.000000, 13.000000)">
			<g id="Group">
				<polygon id="Path" class="st0" points="1.7,0.1 10.1,7.6 18.5,0.1 				"/>
				<path id="Path_00000052824409771696024870000011149267127203072692_" class="st0" d="M10.5,8.8C10.5,8.8,10.5,8.8,10.5,8.8
					c-0.1,0-0.1,0.1-0.2,0.1c0,0,0,0,0,0c-0.1,0-0.1,0-0.2,0h0h0c-0.1,0-0.1,0-0.2,0c0,0,0,0,0,0c-0.1,0-0.1-0.1-0.2-0.1
					c0,0,0,0,0,0L0.8,1.1v11.5c0,0.3,0.3,0.6,0.6,0.6h17.4c0.3,0,0.6-0.3,0.6-0.6V1.1L10.5,8.8z"/>
			</g>
		</g>
	</g>
</g>
</svg>
