<?xml version="1.0" encoding="utf-8"?>
<!-- Generator: Adobe Illustrator 27.2.0, SVG Export Plug-In . SVG Version: 6.00 Build 0)  -->
<svg version="1.1" id="Layer_1" xmlns="http://www.w3.org/2000/svg" xmlns:xlink="http://www.w3.org/1999/xlink" x="0px" y="0px"
	 viewBox="0 0 64 64" style="enable-background:new 0 0 64 64;" xml:space="preserve">
<style type="text/css">
	.st0{fill:#CFD8FC;}
	.st1{fill:#1F3BA7;}
	.st2{fill:#FDFDFF;}
</style>
<circle class="st0" cx="33.2" cy="32.7" r="26"/>
<rect x="15" y="8" class="st1" width="33.5" height="49.3"/>
<path class="st1" d="M20.3,52.4c0,1.4-0.4,2.5-0.9,2.5h-1.2c-0.5,0-0.9-1.1-0.9-2.5V12.7c0-1.4,0.4-2.5,0.9-2.5h1.2
	c0.5,0,0.9,1.1,0.9,2.5V52.4z"/>
<path class="st0" d="M50.4,6.7c0-0.9-0.7-1.6-1.6-1.6H14.7c-0.9,0-1.6,0.7-1.6,1.6l0,0c0,0.9,0.7,1.6,1.6,1.6h34.1
	C49.7,8.3,50.4,7.6,50.4,6.7L50.4,6.7z"/>
<path class="st0" d="M50.4,57.3c0-0.9-0.7-1.6-1.6-1.6H14.7c-0.9,0-1.6,0.7-1.6,1.6l0,0c0,0.9,0.7,1.6,1.6,1.6h34.1
	C49.7,58.8,50.4,58.1,50.4,57.3L50.4,57.3z"/>
<path class="st0" d="M50.4,40.4c0-0.9-0.7-1.6-1.6-1.6H14.7c-0.9,0-1.6,0.7-1.6,1.6l0,0c0,0.9,0.7,1.6,1.6,1.6h34.1
	C49.7,42,50.4,41.3,50.4,40.4L50.4,40.4z"/>
<path class="st0" d="M50.4,23.6c0-0.9-0.7-1.6-1.6-1.6H14.7c-0.9,0-1.6,0.7-1.6,1.6l0,0c0,0.9,0.7,1.6,1.6,1.6h34.1
	C49.7,25.1,50.4,24.4,50.4,23.6L50.4,23.6z"/>
<g>
	<path class="st2" d="M26.4,26.6c0.8,0,1.4,0.3,2,0.8c0.5,0.5,0.8,1.2,0.8,1.9v6.3c0,0.8-0.3,1.4-0.8,2c-0.5,0.5-1.2,0.8-1.9,0.8
		c-0.8,0-1.4-0.3-1.9-0.8c-0.5-0.5-0.8-1.2-0.8-1.9v-6.3c0-0.8,0.3-1.4,0.8-2C25,26.8,25.6,26.6,26.4,26.6z M27.3,29.3
		c0-0.3-0.1-0.5-0.3-0.7c-0.2-0.2-0.4-0.3-0.7-0.3c-0.3,0-0.5,0.1-0.7,0.3c-0.2,0.2-0.3,0.4-0.3,0.7v6.3c0,0.3,0.1,0.5,0.3,0.7
		c0.2,0.2,0.4,0.3,0.7,0.3c0.3,0,0.5-0.1,0.7-0.3c0.2-0.2,0.3-0.4,0.3-0.7V29.3z"/>
	<path class="st2" d="M33.2,38.2h-1.7V26.7h1.7V38.2z"/>
	<path class="st2" d="M40.7,38.2H36V26.7h1.7v9.8h3V38.2z"/>
</g>
</svg>
