<?xml version="1.0" encoding="utf-8"?>
<!-- Generator: Adobe Illustrator 27.2.0, SVG Export Plug-In . SVG Version: 6.00 Build 0)  -->
<svg version="1.1" id="Capa_1" xmlns="http://www.w3.org/2000/svg" xmlns:xlink="http://www.w3.org/1999/xlink" x="0px" y="0px"
	 viewBox="0 0 129.1 24" style="enable-background:new 0 0 129.1 24;" xml:space="preserve">
<style type="text/css">
	.st0{fill:#FFFFFF;}
</style>
<path class="st0" d="M22,11c-0.3-2.5-1.4-4.8-3.2-6.4C16.9,2.9,14.5,2,12,2C9.5,2,7.1,2.9,5.3,4.6C3.5,6.2,2.3,8.5,2,11h0v2h0
	c0.3,2.5,1.4,4.8,3.2,6.4C7.1,21.1,9.5,22,12,22c2.5,0,4.9-0.9,6.7-2.6c1.8-1.7,3-3.9,3.2-6.4h0L22,11L22,11z M19.9,11h-3.2
	c-0.1-2.2-0.5-4.3-1.4-6.3c1.2,0.6,2.3,1.4,3.1,2.5C19.2,8.4,19.8,9.6,19.9,11z M12,20c-1,0-2.5-2.7-2.7-7h5.5
	C14.5,17.3,13,20,12,20z M9.3,11C9.5,6.7,11,4,12,4s2.5,2.7,2.7,7H9.3z M8.7,4.7c-0.9,2-1.3,4.1-1.4,6.3H4.1
	c0.2-1.4,0.7-2.6,1.5-3.7C6.4,6.2,7.4,5.3,8.7,4.7L8.7,4.7z M4.1,13h3.2c0.1,2.2,0.5,4.3,1.4,6.3c-1.2-0.6-2.3-1.4-3.1-2.5
	C4.8,15.6,4.2,14.4,4.1,13z M15.3,19.3c0.9-2,1.3-4.1,1.4-6.3h3.2c-0.2,1.4-0.7,2.6-1.5,3.7C17.6,17.8,16.6,18.7,15.3,19.3
	L15.3,19.3z"/>
<g>
	<path class="st0" d="M37.8,16.2c-0.4,0.4-0.9,0.8-1.6,1c-0.7,0.2-1.4,0.4-2.2,0.4c-0.9,0-1.6-0.2-2.3-0.6c-0.6-0.4-1.2-0.9-1.5-1.6
		c-0.4-0.7-0.5-1.6-0.5-2.5v-0.7c0-1,0.2-1.9,0.5-2.6c0.3-0.7,0.8-1.3,1.4-1.7c0.6-0.4,1.4-0.6,2.2-0.6c1.2,0,2.1,0.3,2.8,0.8
		s1.1,1.4,1.2,2.5h-2c-0.1-0.6-0.3-1-0.6-1.3C34.9,9.1,34.4,9,33.9,9c-0.7,0-1.2,0.3-1.6,0.8s-0.5,1.3-0.6,2.3v0.6
		c0,1,0.2,1.8,0.6,2.4s1,0.8,1.7,0.8c0.8,0,1.3-0.2,1.6-0.5v-1.7h-1.9v-1.5h3.9V16.2z"/>
	<path class="st0" d="M41.4,17.4h-2V6.9h2V17.4z"/>
	<path class="st0" d="M42.7,13.7c0-0.7,0.1-1.4,0.4-2s0.7-1,1.2-1.3c0.5-0.3,1.1-0.5,1.8-0.5c1,0,1.8,0.3,2.4,0.9
		c0.6,0.6,1,1.4,1.1,2.5l0,0.5c0,1.1-0.3,2-1,2.7c-0.6,0.7-1.5,1-2.5,1s-1.9-0.3-2.6-1C43,15.9,42.7,14.9,42.7,13.7L42.7,13.7z
		 M44.7,13.8c0,0.7,0.1,1.2,0.4,1.6c0.3,0.4,0.6,0.6,1.1,0.6c0.5,0,0.9-0.2,1.1-0.6c0.3-0.4,0.4-1,0.4-1.8c0-0.7-0.1-1.2-0.4-1.6
		s-0.6-0.6-1.1-0.6c-0.5,0-0.9,0.2-1.1,0.6S44.7,13,44.7,13.8z"/>
	<path class="st0" d="M57.6,13.8c0,1.2-0.3,2.1-0.8,2.8c-0.5,0.7-1.2,1-2.1,1c-0.8,0-1.4-0.3-1.9-0.9l-0.1,0.8h-1.8V6.9h2v3.8
		c0.5-0.5,1.1-0.8,1.8-0.8c0.9,0,1.6,0.3,2.1,1c0.5,0.7,0.8,1.6,0.8,2.8V13.8z M55.6,13.7c0-0.7-0.1-1.3-0.4-1.6s-0.6-0.5-1.1-0.5
		c-0.6,0-1.1,0.3-1.3,0.8v2.9c0.2,0.5,0.7,0.8,1.3,0.8c0.6,0,1.1-0.3,1.3-0.9C55.6,14.7,55.6,14.3,55.6,13.7z"/>
	<path class="st0" d="M63.1,17.4c-0.1-0.2-0.2-0.4-0.2-0.7c-0.5,0.5-1.1,0.8-1.9,0.8c-0.7,0-1.3-0.2-1.8-0.6
		c-0.5-0.4-0.7-0.9-0.7-1.6c0-0.8,0.3-1.4,0.9-1.8c0.6-0.4,1.4-0.6,2.5-0.6h0.9v-0.4c0-0.3-0.1-0.6-0.3-0.8
		c-0.2-0.2-0.5-0.3-0.8-0.3c-0.3,0-0.6,0.1-0.8,0.2c-0.2,0.2-0.3,0.4-0.3,0.7h-2c0-0.4,0.1-0.8,0.4-1.2s0.6-0.7,1.1-0.9
		s1-0.3,1.6-0.3c0.9,0,1.6,0.2,2.2,0.7c0.5,0.5,0.8,1.1,0.8,1.9v3.2c0,0.7,0.1,1.2,0.3,1.6v0.1H63.1z M61.5,16.1
		c0.3,0,0.6-0.1,0.8-0.2s0.4-0.3,0.5-0.5v-1.3h-0.7c-1,0-1.5,0.3-1.6,1l0,0.1c0,0.2,0.1,0.4,0.3,0.6C60.9,16,61.2,16.1,61.5,16.1z"
		/>
	<path class="st0" d="M68.4,17.4h-2V6.9h2V17.4z"/>
	<path class="st0" d="M77.4,14h-3.8v-1.6h3.8V14z"/>
	<path class="st0" d="M88.5,13.1h-3.9v2.7h4.6v1.6h-6.7v-10h6.7v1.7h-4.6v2.4h3.9V13.1z"/>
	<path class="st0" d="M92.1,10l0.1,0.9c0.5-0.7,1.2-1,2.1-1c0.8,0,1.4,0.2,1.8,0.7s0.6,1.1,0.6,2.1v4.8h-2v-4.7
		c0-0.4-0.1-0.7-0.3-0.9s-0.5-0.3-0.9-0.3c-0.6,0-1,0.2-1.3,0.7v5.2h-2V10H92.1z"/>
	<path class="st0" d="M97.9,13.7c0-1.1,0.3-2,0.8-2.7c0.5-0.7,1.3-1,2.2-1c0.8,0,1.4,0.3,1.9,0.8l0.1-0.7h1.8v7.2
		c0,0.6-0.1,1.2-0.4,1.7c-0.3,0.5-0.7,0.8-1.2,1.1c-0.5,0.2-1.2,0.4-1.9,0.4c-0.5,0-1.1-0.1-1.6-0.3c-0.5-0.2-0.9-0.5-1.2-0.8
		l0.9-1.2c0.5,0.6,1.1,0.8,1.8,0.8c0.5,0,0.9-0.1,1.2-0.4s0.4-0.7,0.4-1.2v-0.4c-0.5,0.5-1.1,0.8-1.8,0.8c-0.9,0-1.6-0.3-2.2-1
		C98.1,15.8,97.9,14.9,97.9,13.7L97.9,13.7z M99.8,13.8c0,0.7,0.1,1.2,0.4,1.6c0.3,0.4,0.6,0.6,1.1,0.6c0.6,0,1-0.2,1.3-0.7v-3.1
		c-0.3-0.5-0.7-0.7-1.3-0.7c-0.5,0-0.8,0.2-1.1,0.6C100,12.5,99.8,13.1,99.8,13.8z"/>
	<path class="st0" d="M108.2,17.4h-2V6.9h2V17.4z"/>
	<path class="st0" d="M109.8,8.1c0-0.3,0.1-0.5,0.3-0.7c0.2-0.2,0.5-0.3,0.8-0.3c0.3,0,0.6,0.1,0.8,0.3s0.3,0.4,0.3,0.7
		c0,0.3-0.1,0.5-0.3,0.7c-0.2,0.2-0.5,0.3-0.8,0.3s-0.6-0.1-0.8-0.3C109.9,8.7,109.8,8.4,109.8,8.1z M111.9,17.4h-2V10h2V17.4z"/>
	<path class="st0" d="M117.6,15.4c0-0.2-0.1-0.4-0.4-0.6c-0.2-0.1-0.6-0.3-1.2-0.4c-1.8-0.4-2.6-1.1-2.6-2.2c0-0.7,0.3-1.2,0.8-1.6
		c0.5-0.4,1.3-0.7,2.1-0.7c0.9,0,1.7,0.2,2.3,0.7c0.6,0.4,0.8,1,0.8,1.7h-2c0-0.3-0.1-0.5-0.3-0.7s-0.5-0.3-0.9-0.3
		c-0.3,0-0.6,0.1-0.8,0.2s-0.3,0.3-0.3,0.6c0,0.2,0.1,0.4,0.3,0.5c0.2,0.1,0.6,0.3,1,0.3c0.5,0.1,0.9,0.2,1.2,0.3c1,0.4,1.6,1,1.6,2
		c0,0.7-0.3,1.2-0.9,1.6s-1.3,0.6-2.2,0.6c-0.6,0-1.2-0.1-1.7-0.3c-0.5-0.2-0.9-0.5-1.1-0.9c-0.3-0.4-0.4-0.8-0.4-1.2h1.9
		c0,0.4,0.1,0.6,0.4,0.8c0.2,0.2,0.6,0.3,1,0.3c0.4,0,0.7-0.1,0.9-0.2C117.5,15.8,117.6,15.6,117.6,15.4z"/>
	<path class="st0" d="M122.7,10.8c0.5-0.6,1.2-0.9,2-0.9c1.6,0,2.4,0.9,2.4,2.8v4.7h-2v-4.7c0-0.4-0.1-0.7-0.3-0.9s-0.5-0.3-0.9-0.3
		c-0.6,0-1,0.2-1.3,0.7v5.3h-2V6.9h2V10.8z"/>
</g>
</svg>
