<?xml version="1.0" encoding="utf-8"?>
<!-- Generator: Adobe Illustrator 27.2.0, SVG Export Plug-In . SVG Version: 6.00 Build 0)  -->
<svg version="1.1" id="Layer_1" xmlns="http://www.w3.org/2000/svg" xmlns:xlink="http://www.w3.org/1999/xlink" x="0px" y="0px"
	 viewBox="0 0 64 64" style="enable-background:new 0 0 64 64;" xml:space="preserve">
<style type="text/css">
	.st0{fill:#CFD8FC;}
	.st1{fill:#1F3BA7;}
</style>
<circle class="st0" cx="33.2" cy="32.7" r="26"/>
<g>
	<path class="st1" d="M50.3,17.5H37.6v-6.5h-1.6h-0.7h-6.6h-2.3v2.3v4.2H13.7c-1.9,0-3.5,1.5-3.5,3.5v25.5c0,1.9,1.5,3.5,3.5,3.5
		h36.7c1.9,0,3.5-1.5,3.5-3.5V21C53.8,19.1,52.2,17.5,50.3,17.5z M28.7,13.4h6.6v4.2h-6.6V13.4z M40.8,35.3c0,1-0.8,1.7-1.7,1.7
		h-3.6v3.6c0,1-0.8,1.7-1.7,1.7h-3.5c-1,0-1.7-0.8-1.7-1.7V37h-3.6c-1,0-1.7-0.8-1.7-1.7v-3.5c0-1,0.8-1.7,1.7-1.7h3.6v-3.6
		c0-1,0.8-1.7,1.7-1.7h3.5c1,0,1.7,0.8,1.7,1.7v3.6h3.6c1,0,1.7,0.8,1.7,1.7V35.3z"/>
</g>
</svg>
