<?xml version="1.0" encoding="utf-8"?>
<!-- Generator: Adobe Illustrator 27.0.0, SVG Export Plug-In . SVG Version: 6.00 Build 0)  -->
<svg version="1.1" id="Capa_1" xmlns="http://www.w3.org/2000/svg" xmlns:xlink="http://www.w3.org/1999/xlink" x="0px" y="0px"
	 viewBox="0 0 14 21" style="enable-background:new 0 0 14 21;" xml:space="preserve">
<style type="text/css">
	.st0{fill-rule:evenodd;clip-rule:evenodd;fill:#3A73B8;}
</style>
<g id="Symbols">
	<g id="Component_x2F_Location_x2F_Location" transform="translate(-4.000000, -163.000000)">
		<path id="Shape" class="st0" d="M11.7,183.6c1.8-3,6.2-10.5,6.2-13.6c0-3.8-3.1-7-7-7c-3.8,0-7,3.1-7,7c0,3.1,4.4,10.7,6.2,13.6
			C10.6,184.1,11.4,184.1,11.7,183.6L11.7,183.6z M6.6,170c0-2.4,1.9-4.4,4.4-4.4c2.4,0,4.4,1.9,4.4,4.4c0,2.4-2,4.4-4.4,4.4
			C8.6,174.3,6.6,172.4,6.6,170z"/>
	</g>
</g>
</svg>
