<?xml version="1.0" encoding="utf-8"?>
<!-- Generator: Adobe Illustrator 27.0.0, SVG Export Plug-In . SVG Version: 6.00 Build 0)  -->
<svg version="1.1" id="Capa_1" xmlns="http://www.w3.org/2000/svg" xmlns:xlink="http://www.w3.org/1999/xlink" x="0px" y="0px"
	 viewBox="0 0 18 18" style="enable-background:new 0 0 18 18;" xml:space="preserve">
<style type="text/css">
	.st0{fill-rule:evenodd;clip-rule:evenodd;fill:#3A73B8;}
</style>
<g id="Symbols">
	<g id="Component_x2F_Location_x2F_Location" transform="translate(-3.000000, -201.000000)">
		<g id="Group-3">
			<g id="Group-5" transform="translate(0.000000, 196.000000)">
				<path id="Path" class="st0" d="M20,17.4c-1.2,0-2.4-0.2-3.5-0.6c-0.4-0.1-0.7,0-1,0.2l-1.6,2c-2.8-1.4-5.5-3.9-6.9-6.8L9,10.5
					c0.3-0.3,0.4-0.7,0.2-1C8.8,8.4,8.6,7.2,8.6,6c0-0.5-0.5-1-1-1H4.2C3.7,5,3,5.2,3,6c0,9.3,7.7,17,17,17c0.7,0,1-0.6,1-1.2v-3.4
					C21,17.8,20.5,17.4,20,17.4z"/>
			</g>
		</g>
	</g>
</g>
</svg>
