<?xml version="1.0" encoding="UTF-8"?>
<svg width="14px" height="11px" viewBox="0 0 14 11" version="1.1" xmlns="http://www.w3.org/2000/svg" xmlns:xlink="http://www.w3.org/1999/xlink">
    <!-- Generator: Sketch 64 (93537) - https://sketch.com -->
    <title>Group 16</title>
    <desc>Created with Sketch.</desc>
    <g id="Master" stroke="none" stroke-width="1" fill="none" fill-rule="evenodd">
        <g id="Careers-/-Job-Role" transform="translate(-938.000000, -589.000000)" fill="#6E8AF7">
            <g id="Group-15" transform="translate(903.000000, 430.000000)">
                <g id="Group-9" transform="translate(0.000000, 104.000000)">
                    <g id="Group-12">
                        <g id="Group-10" transform="translate(35.000000, 31.000000)">
                            <g id="Group-4" transform="translate(0.000000, 15.000000)">
                                <g id="Group-16" transform="translate(0.000000, 9.062500)">
                                    <path d="M12.4770506,2.29286928 L9.81652048,2.29286928 L9.81652048,1.6899488 C9.81652048,0.759468072 8.9778506,9.05941988e-14 7.9517494,9.05941988e-14 L5.7830747,9.05941988e-14 C4.75633735,9.05941988e-14 3.91830361,0.760044578 3.91830361,1.6899488 L3.91830361,2.29286928 L1.24360482,2.29286928 C0.549513253,2.29286928 1.020517e-12,2.80365361 1.020517e-12,3.41988614 L1.020517e-12,4.92666325 C1.020517e-12,5.1231994 0.173378313,5.28032349 0.390245783,5.28032349 L6.07231807,5.28032349 L6.07231807,5.00496325 C6.07231807,4.87393916 6.18809349,4.76901506 6.3326747,4.76901506 L7.40232289,4.76901506 C7.5469012,4.76901506 7.66267952,4.87393654 7.66267952,5.00496325 L7.66267952,5.28032349 L13.3447518,5.28032349 C13.5616193,5.28032349 13.7349976,5.1231994 13.7349976,4.92666325 L13.7349976,3.43272651 C13.7349976,2.80421702 13.1713735,2.29292169 12.4772819,2.29292169 L12.4770506,2.29286928 Z M5.30567711,1.69045979 C5.30567711,1.4545116 5.52254458,1.25797545 5.7829012,1.25797545 L7.9515759,1.25797545 C8.21193253,1.25797545 8.4288,1.4545116 8.4288,1.69045979 L8.4288,2.29338027 L5.30561928,2.29286849 L5.30567711,1.69045979 Z" id="Shape"></path>
                                    <path d="M7.6477012,5.93547018 C7.60421494,6.28913042 7.27156627,6.55117861 6.86720964,6.55117861 C6.4622747,6.55117861 6.14431807,6.27581837 6.10082892,5.93547018 L0.939527711,5.93547018 C0.722660241,5.93547018 0.549281928,6.09259428 0.549281928,6.28913042 L0.549281928,9.68239247 C0.549281928,10.311413 1.11290602,10.8094093 1.79288675,10.8094093 L11.9275373,10.8094093 C12.6216289,10.8094093 13.185253,10.298625 13.185253,9.66960452 L13.185253,6.28905181 C13.185253,6.09251566 13.0118747,5.93539157 12.7950072,5.93539157 L7.6477012,5.93547018 Z" id="Path"></path>
                                </g>
                            </g>
                        </g>
                    </g>
                </g>
            </g>
        </g>
    </g>
</svg>