<?xml version="1.0" encoding="UTF-8"?>
<svg width="10px" height="15px" viewBox="0 0 10 15" version="1.1" xmlns="http://www.w3.org/2000/svg" xmlns:xlink="http://www.w3.org/1999/xlink">
    <!-- Generator: Sketch 63.1 (92452) - https://sketch.com -->
    <title>Shape</title>
    <desc>Created with Sketch.</desc>
    <g id="Symbols" stroke="none" stroke-width="1" fill="none" fill-rule="evenodd">
        <g id="Component-/-Card-/-Event-/-Text-Copy" transform="translate(-2.000000, -2.000000)" fill="#6E8AF7">
            <g id="Text">
                <path d="M7.43191489,16.5088298 C8.69604787,14.4281383 11.8202128,9.06994681 11.8202128,6.91010638 C11.8202128,4.19734043 9.61664894,2 6.91010638,2 C4.19734043,2 2,4.19734043 2,6.91010638 C2,9.07058511 5.11792553,14.4287766 6.38207447,16.5088298 C6.62143617,16.907766 7.19240957,16.907766 7.43177128,16.5088298 L7.43191489,16.5088298 Z M3.84148936,6.91010638 C3.84148936,5.21031915 5.21033511,3.84148936 6.91010638,3.84148936 C8.60430851,3.84148936 9.9787234,5.21033511 9.9787234,6.91010638 C9.9787234,8.60430851 8.6036383,9.9787234 6.91010638,9.9787234 C5.21031915,9.9787234 3.84148936,8.6036383 3.84148936,6.91010638 Z" id="Shape"></path>
            </g>
        </g>
    </g>
</svg>