<?xml version="1.0" encoding="UTF-8"?>
<svg width="12px" height="14px" viewBox="0 0 12 14" version="1.1" xmlns="http://www.w3.org/2000/svg" xmlns:xlink="http://www.w3.org/1999/xlink">
    <!-- Generator: Sketch 63.1 (92452) - https://sketch.com -->
    <title>calendar_today-24px</title>
    <desc>Created with Sketch.</desc>
    <g id="Symbols" stroke="none" stroke-width="1" fill="none" fill-rule="evenodd">
        <g id="Component-/-Card-/-Event-/-Text-Copy" transform="translate(-1.000000, -26.000000)">
            <g id="calendar_today-24px" transform="translate(0.000000, 26.000000)">
                <path d="M11.6666667,1.75 L11.0833333,1.75 L11.0833333,0.583333333 L9.91666667,0.583333333 L9.91666667,1.75 L4.08333333,1.75 L4.08333333,0.583333333 L2.91666667,0.583333333 L2.91666667,1.75 L2.33333333,1.75 C1.69166667,1.75 1.16666667,2.275 1.16666667,2.91666667 L1.16666667,12.25 C1.16666667,12.8916667 1.69166667,13.4166667 2.33333333,13.4166667 L11.6666667,13.4166667 C12.3083333,13.4166667 12.8333333,12.8916667 12.8333333,12.25 L12.8333333,2.91666667 C12.8333333,2.275 12.3083333,1.75 11.6666667,1.75 Z M11.6666667,12.25 L2.33333333,12.25 L2.33333333,4.66666667 L11.6666667,4.66666667 L11.6666667,12.25 Z" id="Shape" fill="#6E8AF7"></path>
                <polygon id="Path" points="0 0 14 0 14 14 0 14"></polygon>
            </g>
        </g>
    </g>
</svg>