<?xml version="1.0" encoding="utf-8"?>
<!-- Generator: Adobe Illustrator 23.0.3, SVG Export Plug-In . SVG Version: 6.00 Build 0)  -->
<svg version="1.1" id="Layer_1" xmlns="http://www.w3.org/2000/svg" xmlns:xlink="http://www.w3.org/1999/xlink" x="0px" y="0px"
	 viewBox="0 0 15.3 15.3" style="enable-background:new 0 0 15.3 15.3;" xml:space="preserve">
<style type="text/css">
	.st0{fill-rule:evenodd;clip-rule:evenodd;fill:#f8144d;}
</style>
<title>Instagram Outline</title>
<desc>Created with Sketch.</desc>
<g id="Symbols">
	<g transform="translate(1.000000, 1.000000)">
		<g id="Instagram-Outline">
			<g id="Instagram-Copy" transform="translate(9.350000, 9.350000)">
				<path id="Shape" class="st0" d="M-2.7-9c2,0,2.3,0,3.1,0c0.7,0,1.1,0.2,1.4,0.3c0.3,0.1,0.6,0.3,0.9,0.6
					c0.3,0.2,0.4,0.5,0.6,0.9c0.1,0.3,0.2,0.7,0.3,1.4c0,0.8,0,1,0,3.1s0,2.3,0,3.1c0,0.7-0.2,1.1-0.3,1.4C3,2.5,2.5,3,1.8,3.2
					C1.5,3.3,1.1,3.5,0.4,3.5c-0.8,0-1,0-3.1,0s-2.3,0-3.1,0c-0.7,0-1.1-0.2-1.4-0.3c-0.3-0.1-0.6-0.3-0.9-0.6
					c-0.3-0.2-0.4-0.5-0.6-0.9c-0.1-0.3-0.2-0.7-0.3-1.4c0-0.8,0-1,0-3.1s0-2.3,0-3.1c0-0.7,0.2-1.1,0.3-1.4
					c0.1-0.3,0.3-0.6,0.6-0.9c0.2-0.3,0.5-0.4,0.9-0.6c0.3-0.1,0.7-0.2,1.4-0.3C-5-9-4.8-9-2.7-9 M-2.7-10.4c-2.1,0-2.3,0-3.1,0
					c-0.8,0-1.4,0.2-1.9,0.4c-0.5,0.2-1,0.5-1.4,0.9c-0.4,0.4-0.7,0.8-0.9,1.4c-0.2,0.5-0.3,1-0.4,1.9s0,1.1,0,3.1s0,2.3,0,3.1
					c0,0.8,0.2,1.4,0.4,1.9c0.2,0.5,0.5,1,0.9,1.4C-8.7,4-8.2,4.3-7.7,4.5c0.5,0.2,1,0.3,1.9,0.4s1.1,0,3.1,0s2.3,0,3.1,0
					s1.4-0.2,1.9-0.4c1-0.4,1.8-1.2,2.2-2.2c0.2-0.5,0.3-1,0.4-1.9c0-0.8,0-1.1,0-3.1s0-2.3,0-3.1S4.7-7.2,4.5-7.7
					C4.3-8.2,4-8.7,3.6-9.1C3.3-9.5,2.8-9.8,2.3-9.9c-0.5-0.2-1-0.3-1.9-0.4C-0.4-10.3-0.6-10.3-2.7-10.4L-2.7-10.4z"/>
				<path class="st0" d="M-2.7-6.6c-1.6,0-3,1-3.6,2.4s-0.3,3.2,0.8,4.3s2.8,1.5,4.3,0.8s2.4-2,2.4-3.6c0-1-0.4-2-1.1-2.8
					S-1.7-6.6-2.7-6.6z M-2.7-0.2c-1.4,0-2.5-1.1-2.5-2.5s1.1-2.5,2.5-2.5s2.5,1.1,2.5,2.5S-1.3-0.2-2.7-0.2L-2.7-0.2z"/>
				<circle class="st0" cx="1.4" cy="-6.8" r="1"/>
			</g>
		</g>
	</g>
</g>
</svg>
