<?xml version="1.0" encoding="utf-8"?>
<!-- Generator: Adobe Illustrator 23.0.3, SVG Export Plug-In . SVG Version: 6.00 Build 0)  -->
<svg version="1.1" id="Layer_1" xmlns="http://www.w3.org/2000/svg" xmlns:xlink="http://www.w3.org/1999/xlink" x="0px" y="0px"
	 viewBox="0 0 15.3 15.3" style="enable-background:new 0 0 15.3 15.3;" xml:space="preserve">
<style type="text/css">
	.st0{fill-rule:evenodd;clip-rule:evenodd;fill:#FFFFFF;}
</style>
<title>Instagram</title>
<desc>Created with Sketch.</desc>
<g id="Symbols">
	<g>
		<g id="Instagram">
			<g transform="translate(9.350000, 9.350000)">
				<path id="Shape" class="st0" d="M-1.7-8c2,0,2.3,0,3.1,0c0.7,0,1.1,0.2,1.4,0.3c0.3,0.1,0.6,0.3,0.9,0.6
					c0.3,0.2,0.4,0.5,0.6,0.9c0.1,0.3,0.2,0.7,0.3,1.4c0,0.8,0,1,0,3.1s0,2.3,0,3.1c0,0.7-0.2,1.1-0.3,1.4C4,3.5,3.5,4,2.8,4.2
					C2.5,4.3,2.1,4.5,1.4,4.5c-0.8,0-1,0-3.1,0s-2.3,0-3.1,0c-0.7,0-1.1-0.2-1.4-0.3c-0.3-0.1-0.6-0.3-0.9-0.6
					c-0.3-0.2-0.4-0.5-0.6-0.9c-0.1-0.3-0.2-0.7-0.3-1.4c0-0.8,0-1,0-3.1s0-2.3,0-3.1c0-0.7,0.2-1.1,0.3-1.4
					c0.1-0.3,0.3-0.6,0.6-0.9c0.2-0.3,0.5-0.4,0.9-0.6c0.3-0.1,0.7-0.2,1.4-0.3C-4-8-3.8-8-1.7-8 M-1.7-9.4c-2.1,0-2.3,0-3.1,0
					c-0.8,0-1.4,0.2-1.9,0.4c-0.5,0.2-1,0.5-1.4,0.9c-0.4,0.4-0.7,0.8-0.9,1.4c-0.2,0.5-0.3,1-0.4,1.9s0,1.1,0,3.1s0,2.3,0,3.1
					c0,0.8,0.2,1.4,0.4,1.9c0.2,0.5,0.5,1,0.9,1.4C-7.7,5-7.2,5.3-6.7,5.5c0.5,0.2,1,0.3,1.9,0.4s1.1,0,3.1,0s2.3,0,3.1,0
					s1.4-0.2,1.9-0.4c1-0.4,1.8-1.2,2.2-2.2c0.2-0.5,0.3-1,0.4-1.9c0-0.8,0-1.1,0-3.1s0-2.3,0-3.1S5.7-6.2,5.5-6.7
					C5.3-7.2,5-7.7,4.6-8.1C4.3-8.5,3.8-8.8,3.3-8.9c-0.5-0.2-1-0.3-1.9-0.4C0.6-9.3,0.4-9.3-1.7-9.4L-1.7-9.4z"/>
				<path class="st0" d="M-1.7-5.6c-1.6,0-3,1-3.6,2.4s-0.3,3.2,0.8,4.3s2.8,1.5,4.3,0.8s2.4-2,2.4-3.6c0-1-0.4-2-1.1-2.8
					S-0.7-5.6-1.7-5.6z M-1.7,0.8c-1.4,0-2.5-1.1-2.5-2.5s1.1-2.5,2.5-2.5s2.5,1.1,2.5,2.5S-0.3,0.8-1.7,0.8L-1.7,0.8z"/>
				<circle class="st0" cx="2.4" cy="-5.8" r="1"/>
			</g>
		</g>
	</g>
</g>
</svg>
