<?xml version="1.0" encoding="utf-8"?>
<!-- Generator: Adobe Illustrator 27.0.0, SVG Export Plug-In . SVG Version: 6.00 Build 0)  -->
<svg version="1.1" id="Layer_1" xmlns="http://www.w3.org/2000/svg" xmlns:xlink="http://www.w3.org/1999/xlink" x="0px" y="0px"
	 viewBox="0 0 64 64" style="enable-background:new 0 0 64 64;" xml:space="preserve">
<style type="text/css">
	.st0{fill:#CFD8FC;}
	.st1{fill:#1F3BA7;}
</style>
<circle class="st0" cx="32.1" cy="32.1" r="23"/>
<g>
	<path class="st1" d="M-103.1-32.9c-0.6,0.6-0.1,1.5-0.8,1.8c-12.6-1-23.6-11.4-25.2-23.3c-1.9-14.4,6.7-27.6,21.4-31.4
		c0.1-0.6,0.1-1.3,0.2-2.2c2.7,1.3,5.2,2.5,7.9,3.8c0.2-0.8,0.3-1.3,0.4-1.9c11.7,0.1,23.5,10.8,25.3,22.9
		c2.2,14.8-6.2,27.4-21.1,31.7c-0.6,0.6,0,1.5-0.6,2.3C-98.1-30.5-100.6-31.7-103.1-32.9z M-95.5-37.1c0.2,2,1.3,1.2,2.1,0.9
		c8.8-3.2,17.1-12,15.8-25.7c-1-9.7-9.7-18.8-19.7-20.3c-1.3-0.2-2.2-0.6-2.4-1.9c-2.7,1.3-5.1,2.6-7.7,3.8c-0.1-0.5-0.3-1-0.4-1.4
		c-11.3,2.9-18.2,12.9-17.6,25.5c0.5,9.8,9.5,19.5,19.7,21c1.4,0.2,2.1,0.7,2.3,2C-100.6-34.5-98.2-35.7-95.5-37.1z"/>
	<path class="st1" d="M-99.7-62.4c-1.2-0.1-2.3-0.3-3.6,0.1c0-5,0-9.8,0-14.7c0-1.2,0.6-2,1.8-2c1.3,0,1.7,0.9,1.7,2.1
		C-99.7-72.1-99.7-67.3-99.7-62.4z"/>
	<path class="st1" d="M-96.7-59.2c4.3,0,8.1,0,11.9,0c1.2,0,2.5,0.1,2.5,1.7c-0.1,1.5-1.3,1.5-2.4,1.5c-3.8,0-7.6,0-11.5,0
		C-96.5-57-96-58-96.7-59.2z"/>
	<path class="st1" d="M-101.5-54.3c-2,0-3.7-1.6-3.7-3.4c0-1.8,1.8-3.4,3.7-3.4c1.9,0,3.7,1.7,3.7,3.4
		C-97.8-55.8-99.5-54.3-101.5-54.3z"/>
</g>
<g>
	<path class="st1" d="M44.7,4.4c1,0.4,2.1,0.9,3.1,1.3c0.9,0.4,1.2,1,0.8,1.9C48.3,8.3,48,9,47.7,9.7c-0.1,0.2-0.1,0.4,0.1,0.5
		c1.4,1,2.7,2.2,3.6,3.6c0.2,0.3,0.4,0.3,0.7,0.2c0.7-0.3,1.3-0.6,2-0.9c0.8-0.3,1.5-0.1,1.8,0.7c0.4,1,0.8,1.9,1.2,2.9
		c0.3,0.8,0.1,1.4-0.7,1.7c-0.7,0.3-1.4,0.6-2.1,0.9c-0.3,0.1-0.4,0.3-0.4,0.6c0.3,1.1,0.2,2.2,0.2,3.3c0,0.7-0.2,1.4-0.2,2.2
		c0.8,0.3,1.5,0.6,2.3,1c1,0.4,1.3,1,0.9,2c-0.4,0.9-0.7,1.8-1.1,2.7c-0.4,0.8-1,1.1-1.8,0.8c-0.7-0.3-1.4-0.6-2.1-0.9
		c-0.2-0.1-0.4-0.1-0.5,0.1c-0.5,0.8-1.1,1.5-1.8,2.2c-0.7,0.7-1.4,1.2-2.2,1.8c0.3,0.8,0.7,1.6,1,2.4c0.3,0.8,0.1,1.4-0.6,1.8
		c-1,0.5-2.1,0.9-3.2,1.3c-0.8,0.3-1.3,0-1.7-0.8c-0.3-0.8-0.7-1.6-1-2.5c-0.5,0.1-1,0.2-1.6,0.2c-1.3,0-2.6,0.1-3.9-0.2
		c-0.3-0.1-0.4,0-0.6,0.3c-0.2,0.7-0.5,1.3-0.8,1.9c-0.4,1-1,1.3-2,0.9c-0.9-0.4-1.8-0.7-2.7-1.1c-0.9-0.4-1.1-1-0.8-1.9
		c0.3-0.7,0.5-1.4,0.9-2.1c0.1-0.3,0.1-0.4-0.2-0.6c-1.4-1-2.6-2.2-3.6-3.6c-0.2-0.3-0.3-0.3-0.6-0.1c-0.7,0.3-1.3,0.5-2,0.8
		c-1,0.4-1.6,0.2-2-0.8c-0.4-0.9-0.8-1.8-1.1-2.8c-0.3-0.9-0.1-1.5,0.8-1.8c0.8-0.3,1.6-0.7,2.4-1c-0.1-0.8-0.2-1.7-0.2-2.5
		c0-1,0-2,0.2-2.9c0.1-0.3,0-0.5-0.3-0.6c-0.7-0.2-1.3-0.5-2-0.8c-0.9-0.4-1.2-1-0.8-1.9c0.4-0.9,0.7-1.8,1.1-2.8
		c0.3-0.8,1-1.1,1.8-0.8c0.7,0.3,1.4,0.6,2.1,0.9c0.3,0.1,0.4,0.1,0.6-0.1c1-1.5,2.2-2.7,3.7-3.7c0.2-0.2,0.2-0.3,0.1-0.5
		c-0.3-0.7-0.6-1.3-0.9-2c-0.4-1-0.1-1.6,0.9-2c1-0.4,2.1-0.9,3.1-1.3c0.1,0,0.3,0,0.4,0c0.6,0.2,0.9,0.7,1.1,1.3
		c0.3,0.7,0.6,1.4,0.9,2.1c0.1,0,0.2,0,0.3,0c1.7-0.3,3.3-0.3,5-0.1c0.5,0.1,0.7-0.1,0.8-0.5c0.2-0.6,0.5-1.1,0.7-1.6
		c0.2-0.6,0.5-1,1.1-1.1C44.4,4.4,44.5,4.4,44.7,4.4z M38.7,33.4c5.7,0.4,11.2-4,11.4-10.6c0.2-5.4-4-10.9-10.7-11.1
		c-5.4-0.2-10.8,3.9-11.1,10.5C28.1,27.9,32.5,33.1,38.7,33.4z"/>
	<path class="st1" d="M19.1,34.3c1.3,0.3,2.5,0.7,3.6,1.5c0.3-0.3,0.6-0.7,0.9-1.1c0.6-0.6,1.1-0.6,1.8,0c0.3,0.3,0.7,0.7,1,1
		c0.5,0.5,0.5,1.1,0,1.7c-0.3,0.4-0.7,0.7-1.1,1c0.7,1.1,1.2,2.2,1.4,3.5c0.5,0,0.9,0,1.4,0c0.9,0,1.3,0.4,1.3,1.3
		c0,0.4,0,0.9,0,1.3c0,0.9-0.4,1.3-1.3,1.3c-0.4,0-0.9,0-1.4,0c-0.3,1.2-0.7,2.4-1.6,3.6c0.4,0.3,0.8,0.6,1.1,1
		c0.6,0.6,0.5,1.1,0,1.6c-0.3,0.4-0.7,0.7-1.1,1.1c-0.5,0.5-1.1,0.5-1.6,0c-0.4-0.3-0.7-0.7-1.1-1.1c-1.1,0.6-2.2,1.2-3.4,1.4
		c-0.2,0-0.3,0.2-0.3,0.4c0,0.4,0,0.9,0,1.3c0,0.6-0.4,1-1,1c-0.6,0-1.3,0-1.9,0c-0.6,0-0.9-0.4-0.9-1c0-0.4,0-0.8,0-1.2
		c0-0.3,0-0.4-0.4-0.5c-1.1-0.2-2.2-0.7-3.3-1.4c-0.3,0.3-0.5,0.7-0.8,1c-0.7,0.7-1.2,0.7-1.9,0c-0.3-0.3-0.6-0.6-0.9-0.9
		c-0.6-0.6-0.6-1.2,0-1.8c0.3-0.3,0.7-0.7,1-1c-0.7-1.1-1.2-2.2-1.4-3.5c-0.5,0-0.9,0-1.4,0c-0.8,0-1.2-0.5-1.3-1.3
		c0-0.5,0-0.9,0-1.4c0-0.8,0.5-1.2,1.3-1.3c0.4,0,0.9,0,1.4,0c0.3-1.2,0.8-2.4,1.6-3.6C8.7,38,8.3,37.7,8,37.4
		c-0.6-0.6-0.6-1.1,0-1.7c0.4-0.4,0.7-0.7,1.1-1.1c0.5-0.5,1.1-0.5,1.6,0c0.3,0.2,0.5,0.5,0.7,0.7c0.3,0.3,0.5,0.4,0.9,0.1
		c0.8-0.5,1.7-0.9,2.7-1.1c0.4-0.1,0.5-0.3,0.5-0.6c0-0.4,0-0.8,0-1.1c0-0.6,0.4-0.9,0.9-1c0.6,0,1.3,0,1.9,0c0.5,0,0.9,0.4,0.9,0.9
		C19.2,33.1,19.1,33.7,19.1,34.3z M21.8,44c0-2.5-1.9-4.7-4.6-4.7c-2.7,0-4.6,2-4.7,4.5c-0.1,2.5,1.9,4.8,4.6,4.8
		C19.8,48.6,21.9,46.5,21.8,44z"/>
	<path class="st1" d="M42.8,56.5c0.8,1.3,0.8,1.6,0.2,2c-1.6,1-1.6,1-2.5-0.7c-0.8,0.2-1.7,0.4-2.6,0.3c-0.4,0.5-0.1,1.3-0.8,1.5
		c-0.6,0.2-1.2-0.1-1.6-0.3c-1-0.5-0.2-1.3-0.2-2c-0.8-0.4-1.5-0.9-2.1-1.6c-1.4,0.8-1.5,1.1-2.2-0.1c-0.7-1.2-0.9-1.3,0.8-2.3
		c-0.3-0.8-0.4-1.6-0.3-2.4c0-0.2-0.1-0.3-0.3-0.3c-1.4-0.4-1.4-0.4-1.1-1.9c0.2-0.9,0.5-1.1,1.4-0.8c0.2,0.1,0.4,0.1,0.7,0.2
		c0.4-0.8,0.9-1.5,1.6-2.1c-0.9-1.6-0.9-1.7,0.1-2.2c1.3-0.8,1.5-0.6,2.2,0.8c0.8-0.2,1.6-0.4,2.5-0.3c0.3,0,0.2-0.2,0.3-0.4
		c0.3-1.2,0.5-1.3,1.7-1c1.1,0.3,1.2,0.4,0.9,1.6c0,0.2,0,0.3-0.2,0.5c0.8,0.4,1.6,0.9,2.1,1.6c1.7-1,1.7-0.9,2.4,0.4
		c0.5,0.9,0.5,1-1.1,1.9c0.3,0.8,0.4,1.7,0.3,2.6c0.3,0.1,0.6,0.2,0.9,0.3c0.1,0,0.2,0,0.3,0.1c0.5,0.3,0.6,0.6,0.2,1.9
		c-0.2,0.6-0.5,0.8-1,0.6c-0.9-0.3-1.3,0-1.7,0.7C43.6,55.8,43.2,56.1,42.8,56.5z M38.3,48.1c-1.9,0-3.3,1.4-3.3,3.3
		c0,1.8,1.5,3.2,3.3,3.2c1.8,0,3.2-1.5,3.2-3.4C41.5,49.5,40,48.1,38.3,48.1z"/>
	<path class="st1" d="M40.2,31.2c-0.2-0.9-0.4-1.7-0.6-2.5c0-0.2,0-0.3,0.1-0.5c0.1-0.2,0.2-0.3,0.3-0.5c0.2-0.4,0.3-0.8,0-1.1
		c-0.3-0.4-0.8-0.3-1.3-0.2c-0.4,0.1-0.6,0.5-0.5,0.9c0,0.1,0,0.1,0.1,0.1c0.9,1.3,0,2.5-0.1,3.7c-2.6-0.3-4.6-1.6-6.2-3.6
		c0.8-0.7,1.7-1.2,2.6-1.7c0.5-0.3,0.9-0.5,1.4-0.8c0.2-0.1,0.3-0.2,0.3-0.4c0.2-1-0.2-1.9-0.6-2.7c-0.3-0.6-0.6-1.2-0.8-1.8
		c-0.1-0.4-0.2-0.9,0.4-1c-0.3-1.7-0.3-3.2,1.3-4.4c-0.1-0.2-0.3-0.4-0.3-0.7c0.3-0.1,0.6,0,0.9,0.1c0.7,0,1.4,0,2.2-0.1
		c1-0.1,1.8,0.3,2.3,1.2c0.1,0.1,0.2,0.2,0.3,0.2c0.8,0.2,1.2,0.8,1.2,1.6c0.1,0.7,0,1.4-0.2,2.1c0,0.2-0.1,0.3,0.1,0.4
		c0.1,0,0.2,0.2,0.2,0.3c0,0.7-0.1,1.5-0.6,2c-0.8,0.7-0.8,1.6-0.8,2.6c0,0.4,0.2,0.6,0.5,0.8c1.4,0.7,2.6,1.5,3.8,2.4
		C45.1,29.4,43,30.9,40.2,31.2z"/>
</g>
</svg>
