<?xml version="1.0" encoding="UTF-8"?>
<svg width="18px" height="18px" viewBox="0 0 18 18" version="1.1" xmlns="http://www.w3.org/2000/svg" xmlns:xlink="http://www.w3.org/1999/xlink">
    <!-- Generator: Sketch 61.2 (89653) - https://sketch.com -->
    <title>linkedin 2</title>
    <desc>Created with Sketch.</desc>
    <g id="Symbols" stroke="none" stroke-width="1" fill="none" fill-rule="evenodd">
        <g id="Social-/-Linkedin--Copy" transform="translate(-11.000000, -10.000000)" fill="#f8144d">
            <g id="linkedin-2" transform="translate(11.000000, 10.000000)">
                <g id="linkedin">
                    <path d="M17.447,17.452 L13.893,17.452 L13.893,11.883 C13.893,10.555 13.866,8.846 12.041,8.846 C10.188,8.846 9.905,10.291 9.905,11.785 L9.905,17.452 L6.351,17.452 L6.351,6 L9.765,6 L9.765,7.561 L9.811,7.561 C10.288,6.661 11.448,5.711 13.181,5.711 C16.782,5.711 17.448,8.081 17.448,11.166 L17.448,17.452 L17.447,17.452 Z M2.337,4.433 C1.193,4.433 0.274,3.507 0.274,2.368 C0.274,1.23 1.194,0.305 2.337,0.305 C3.477,0.305 4.401,1.23 4.401,2.368 C4.401,3.507 3.476,4.433 2.337,4.433 Z M4.119,17.452 L0.555,17.452 L0.555,6 L4.119,6 L4.119,17.452 Z" id="Shape"></path>
                </g>
            </g>
        </g>
    </g>
</svg>