<?xml version="1.0" encoding="utf-8"?>
<!-- Generator: Adobe Illustrator 27.0.0, SVG Export Plug-In . SVG Version: 6.00 Build 0)  -->
<svg version="1.1" id="Layer_1" xmlns="http://www.w3.org/2000/svg" xmlns:xlink="http://www.w3.org/1999/xlink" x="0px" y="0px"
	 viewBox="0 0 64 64" style="enable-background:new 0 0 64 64;" xml:space="preserve">
<style type="text/css">
	.st0{fill:#CFD8FC;}
	.st1{fill:#1F3BA7;}
</style>
<circle class="st0" cx="32.1" cy="32.1" r="23"/>
<g>
	<path class="st1" d="M-103.1-32.9c-0.6,0.6-0.1,1.5-0.8,1.8c-12.6-1-23.6-11.4-25.2-23.3c-1.9-14.4,6.7-27.6,21.4-31.4
		c0.1-0.6,0.1-1.3,0.2-2.2c2.7,1.3,5.2,2.5,7.9,3.8c0.2-0.8,0.3-1.3,0.4-1.9c11.7,0.1,23.5,10.8,25.3,22.9
		c2.2,14.8-6.2,27.4-21.1,31.7c-0.6,0.6,0,1.5-0.6,2.3C-98.1-30.5-100.6-31.7-103.1-32.9z M-95.5-37.1c0.2,2,1.3,1.2,2.1,0.9
		c8.8-3.2,17.1-12,15.8-25.7c-1-9.7-9.7-18.8-19.7-20.3c-1.3-0.2-2.2-0.6-2.4-1.9c-2.7,1.3-5.1,2.6-7.7,3.8c-0.1-0.5-0.3-1-0.4-1.4
		c-11.3,2.9-18.2,12.9-17.6,25.5c0.5,9.8,9.5,19.5,19.7,21c1.4,0.2,2.1,0.7,2.3,2C-100.6-34.5-98.2-35.7-95.5-37.1z"/>
	<path class="st1" d="M-99.7-62.4c-1.2-0.1-2.3-0.3-3.6,0.1c0-5,0-9.8,0-14.7c0-1.2,0.6-2,1.8-2c1.3,0,1.7,0.9,1.7,2.1
		C-99.7-72.1-99.7-67.3-99.7-62.4z"/>
	<path class="st1" d="M-96.7-59.2c4.3,0,8.1,0,11.9,0c1.2,0,2.5,0.1,2.5,1.7c-0.1,1.5-1.3,1.5-2.4,1.5c-3.8,0-7.6,0-11.5,0
		C-96.5-57-96-58-96.7-59.2z"/>
	<path class="st1" d="M-101.5-54.3c-2,0-3.7-1.6-3.7-3.4c0-1.8,1.8-3.4,3.7-3.4c1.9,0,3.7,1.7,3.7,3.4
		C-97.8-55.8-99.5-54.3-101.5-54.3z"/>
</g>
<path class="st1" d="M40.5,56.3c0.1,0.8,0.2,1.6,0.3,2.5c-2.7-1-5.3-2-8-3.1c2.3-1.8,4.4-3.5,6.7-5.4c0.1,0.9,0.3,1.6,0.4,2.4
	c9.6-3,18-14.7,13.5-28.1c1-0.4,2-0.8,3.1-1.2C61,33.9,56.6,50.7,40.5,56.3z"/>
<path class="st1" d="M16.1,17.9c-0.8-0.7-1.7-1.4-2.5-2.1c7-9.2,23.9-13.7,36.4-2.5c0.6-0.5,1.2-1,2-1.6c0.4,2.9,0.9,5.6,1.3,8.5
	c-2.7-1.1-5.3-2.1-8-3.1c0.6-0.5,1.2-1,1.8-1.5C41.2,9.6,26.2,6.4,16.1,17.9z"/>
<path class="st1" d="M8.1,26.6c-0.8-0.3-1.5-0.6-2.3-1c2.2-1.8,4.4-3.5,6.6-5.3c0.6,2.8,0.9,5.6,1.3,8.4c-0.8-0.1-1.4-0.6-2.2-0.7
	C9.2,37.5,15,50.8,29,53.6c-0.2,1.1-0.4,2.2-0.5,3.3C17.1,55.4,4.9,43.5,8.1,26.6z"/>
<path class="st1" d="M38.3,25.8c-1,0-1.9,0-3,0c1.6-1.8,3.1-3.5,4.6-5.2c1.5,1.7,3,3.4,4.6,5.2c-1,0-1.9,0-2.9,0c0,5.7,0,11.3,0,17
	c-1.1,0-2.2,0-3.4,0C38.3,37.1,38.3,31.5,38.3,25.8z"/>
<path class="st1" d="M30.3,30.8c-1,0-1.9,0-3.1,0c1.7-1.9,3.2-3.6,4.7-5.3c1.6,1.7,3.1,3.4,4.7,5.3c-1.1,0-2,0-3,0c0,4,0,8,0,12
	c-1.1,0-2.2,0-3.3,0C30.3,38.8,30.3,34.9,30.3,30.8z"/>
<path class="st1" d="M28.6,35.1c-1.2,0-2.1,0-3.1,0c0,2.6,0,5.1,0,7.7c-1.1,0-2.2,0-3.3,0c0-2.6,0-5.1,0-7.7c-1,0-1.9,0-3.1,0
	c1.6-1.9,3.1-3.5,4.7-5.3C25.5,31.5,27,33.2,28.6,35.1z"/>
<path class="st1" d="M44.2,45.2c-8.2,0-16.3,0-24.4,0c0-0.7,0-0.7,0.7-0.7c5.4,0,10.9,0,16.3,0c2.2,0,4.5,0,6.7,0
	C44,44.5,44.4,44.5,44.2,45.2z"/>
</svg>
