<?xml version="1.0" encoding="UTF-8"?>
<svg width="12px" height="16px" viewBox="0 0 12 16" version="1.1" xmlns="http://www.w3.org/2000/svg" xmlns:xlink="http://www.w3.org/1999/xlink">
    <!-- Generator: Sketch 61.2 (89653) - https://sketch.com -->
    <title>mic-24px</title>
    <desc>Created with Sketch.</desc>
    <g id="Symbols" stroke="none" stroke-width="1" fill="none" fill-rule="evenodd">
        <g id="Component-/-Icon-/-Video-Marker-Podcast" transform="translate(-9.000000, -7.000000)" fill="#E7EBFE">
            <g id="mic-24px" transform="translate(9.000000, 7.000000)">
                <path d="M5.6,9.6 C6.928,9.6 7.992,8.528 7.992,7.2 L8,2.4 C8,1.072 6.928,0 5.6,0 C4.272,0 3.2,1.072 3.2,2.4 L3.2,7.2 C3.2,8.528 4.272,9.6 5.6,9.6 Z M9.84,7.2 C9.84,9.6 7.808,11.28 5.6,11.28 C3.392,11.28 1.36,9.6 1.36,7.2 L0,7.2 C0,9.928 2.176,12.184 4.8,12.576 L4.8,15.2 L6.4,15.2 L6.4,12.576 C9.024,12.192 11.2,9.936 11.2,7.2 L9.84,7.2 Z" id="Shape"></path>
            </g>
        </g>
    </g>
</svg>