<?xml version="1.0" encoding="utf-8"?>
<!-- Generator: Adobe Illustrator 27.0.0, SVG Export Plug-In . SVG Version: 6.00 Build 0)  -->
<svg version="1.1" id="Layer_1" xmlns="http://www.w3.org/2000/svg" xmlns:xlink="http://www.w3.org/1999/xlink" x="0px" y="0px"
	 viewBox="0 0 64 64" style="enable-background:new 0 0 64 64;" xml:space="preserve">
<style type="text/css">
	.st0{fill:#CFD8FC;}
	.st1{fill:#1F3BA7;}
	.st2{fill:#1F3BA7;stroke:#1F3BA7;stroke-width:0.4366;stroke-miterlimit:10;}
</style>
<circle class="st0" cx="32.1" cy="32.1" r="23"/>
<g>
	<path class="st1" d="M-103.1-32.9c-0.6,0.6-0.1,1.5-0.8,1.8c-12.6-1-23.6-11.4-25.2-23.3c-1.9-14.4,6.7-27.6,21.4-31.4
		c0.1-0.6,0.1-1.3,0.2-2.2c2.7,1.3,5.2,2.5,7.9,3.8c0.2-0.8,0.3-1.3,0.4-1.9c11.7,0.1,23.5,10.8,25.3,22.9
		c2.2,14.8-6.2,27.4-21.1,31.7c-0.6,0.6,0,1.5-0.6,2.3C-98.1-30.5-100.6-31.7-103.1-32.9z M-95.5-37.1c0.2,2,1.3,1.2,2.1,0.9
		c8.8-3.2,17.1-12,15.8-25.7c-1-9.7-9.7-18.8-19.7-20.3c-1.3-0.2-2.2-0.6-2.4-1.9c-2.7,1.3-5.1,2.6-7.7,3.8c-0.1-0.5-0.3-1-0.4-1.4
		c-11.3,2.9-18.2,12.9-17.6,25.5c0.5,9.8,9.5,19.5,19.7,21c1.4,0.2,2.1,0.7,2.3,2C-100.6-34.5-98.2-35.7-95.5-37.1z"/>
	<path class="st1" d="M-99.7-62.4c-1.2-0.1-2.3-0.3-3.6,0.1c0-5,0-9.8,0-14.7c0-1.2,0.6-2,1.8-2c1.3,0,1.7,0.9,1.7,2.1
		C-99.7-72.1-99.7-67.3-99.7-62.4z"/>
	<path class="st1" d="M-96.7-59.2c4.3,0,8.1,0,11.9,0c1.2,0,2.5,0.1,2.5,1.7c-0.1,1.5-1.3,1.5-2.4,1.5c-3.8,0-7.6,0-11.5,0
		C-96.5-57-96-58-96.7-59.2z"/>
	<path class="st1" d="M-101.5-54.3c-2,0-3.7-1.6-3.7-3.4c0-1.8,1.8-3.4,3.7-3.4c1.9,0,3.7,1.7,3.7,3.4
		C-97.8-55.8-99.5-54.3-101.5-54.3z"/>
</g>
<path class="st2" d="M5.3,31c0.2-0.1,0.2-0.3,0.2-0.5C6,29.1,7.4,28,8.9,28c1.6,0,3.1,0.8,3.7,2.3c0.2,0.4,0.4,0.5,0.8,0.5
	c0.2,0,0.5,0,0.7,0c0.4,0.1,0.7,0.4,0.7,0.9c0,0.5-0.3,1-0.7,0.9c-1.1-0.1-1.4,0.6-1.9,1.3c-0.8,1.2-2.1,1.7-3.5,1.5
	c-1.5-0.2-2.5-1.1-3.1-2.5c-0.1-0.2,0-0.4-0.2-0.5C5.3,32,5.3,31.5,5.3,31z M11,31.7c0-1.1-0.8-1.9-1.9-1.9c-1,0-1.9,0.9-1.9,1.9
	c0,1,0.9,1.9,1.9,1.9C10.1,33.6,11,32.8,11,31.7z"/>
<path class="st2" d="M34.2,3.4c0.4,0.2,0.9,0.2,1.4,0.5c1.3,0.8,2,2,1.8,3.6c-0.1,1.5-0.9,2.6-2.3,3.2c-0.4,0.2-0.5,0.4-0.5,0.8
	c0,0.2,0,0.4,0,0.7c-0.1,0.5-0.5,0.8-0.9,0.8c-0.5,0-0.9-0.3-0.9-0.8c0.1-1-0.5-1.3-1.2-1.8c-1.3-0.8-1.9-2.2-1.6-3.7
	c0.3-1.6,1.2-2.6,2.8-3c0.1,0,0.2,0,0.3-0.1C33.4,3.4,33.8,3.4,34.2,3.4z M33.7,9.1c1.1,0,1.9-0.8,1.9-1.9c0-1-0.9-1.9-1.9-1.9
	c-1,0-1.9,0.9-1.9,1.9C31.8,8.3,32.6,9.1,33.7,9.1z"/>
<path class="st2" d="M23.6,43.1c-0.4,0.4-0.7,0.8-1.1,1.1c-0.4,0.4-1,0.4-1.4,0c-0.4-0.4-0.4-0.9,0.1-1.4c0.4-0.4,0.7-0.7,1.1-1.1
	c-2.3-2.6-3.5-5.6-3.8-9.1c-0.3,0-0.6,0-0.9,0c-0.6,0-1-0.4-1-1c0-0.5,0.4-0.9,1-0.9c0.3,0,0.6,0,0.9,0c0.3-3.4,1.5-6.4,3.8-9.1
	c-0.4-0.4-0.8-0.7-1.1-1c-0.5-0.5-0.5-1-0.1-1.4c0.4-0.4,1-0.4,1.5,0.1c0.2,0.2,0.3,0.3,0.5,0.5c0.2,0.2,0.3,0.4,0.5,0.6
	c2.6-2.3,5.6-3.5,9-3.8c0.1-0.8-0.2-1.9,1-1.9c1.2,0,0.9,1.1,1,1.9c3.4,0.3,6.4,1.5,9,3.8c0.4-0.4,0.7-0.8,1.1-1.1
	c0.5-0.5,1-0.5,1.4-0.1c0.4,0.4,0.4,0.9-0.1,1.4c-0.4,0.4-0.7,0.7-1.1,1.1c2.3,2.6,3.5,5.6,3.8,9c0.3,0.1,0.6,0,0.9,0.1
	c0.6,0,1,0.4,1,0.9c0,0.6-0.4,0.9-1.1,1c-0.3,0-0.5,0-0.9,0c-0.3,3.4-1.5,6.4-3.8,9.1c0.4,0.4,0.8,0.7,1.1,1.1
	c0.4,0.4,0.4,1,0.1,1.4c-0.4,0.4-0.9,0.4-1.4-0.1c-0.4-0.4-0.7-0.8-1.1-1.2c-2.6,2.3-5.6,3.6-9,3.8c-0.1,0.3,0,0.7-0.1,1
	c-0.1,0.5-0.4,0.9-0.9,0.9c-0.5,0-0.9-0.4-0.9-0.9c0-0.3,0.1-0.7-0.1-1c-0.2-0.2-0.6-0.1-0.9-0.1C28.9,46.4,26.5,45.5,23.6,43.1z
	 M42.2,41.8c4.4-3.8,5.9-9.8,3.7-15.1c-2.2-5.4-7.6-8.6-13.5-8.1c-5.5,0.5-10.2,4.6-11.5,10.2c-1.2,5.2,1,10.4,4.4,13
	c0-0.7,0-1.5,0-2.2c0.1-2.2,1.8-4,4-4.1c3,0,6,0,9,0c2,0,3.6,1.5,3.9,3.5C42.2,39.9,42.1,40.8,42.2,41.8z M33.6,37.4
	c-1.4,0-2.8,0-4.2,0c-1.5,0-2.4,0.9-2.4,2.4c0,1,0,2,0,2.9c0,0.3,0.1,0.5,0.4,0.6c4.2,2.1,8.3,2.1,12.5,0c0.3-0.2,0.4-0.4,0.4-0.7
	c0-1,0-1.9,0-2.9c0-1.5-0.9-2.4-2.4-2.4C36.4,37.4,35,37.4,33.6,37.4z"/>
<path class="st2" d="M58.2,35.5c-1.5,0-2.9-0.9-3.4-2.3c-0.2-0.4-0.4-0.5-0.8-0.5c-0.2,0-0.5,0-0.7,0c-0.5-0.1-0.7-0.4-0.7-0.9
	c0-0.5,0.3-0.7,0.7-0.9c0,0,0.1,0,0.1,0c0.9,0.2,1.3-0.4,1.7-1.1c0.9-1.6,2.9-2.2,4.6-1.5c1.6,0.7,2.6,2.5,2.3,4.2
	C61.5,34.3,60,35.5,58.2,35.5z M56.3,31.8c0,1.1,0.8,1.9,1.9,1.9c1,0,1.9-0.9,1.9-1.9c0-1-0.9-1.9-1.9-1.9
	C57.1,29.9,56.3,30.7,56.3,31.8z"/>
<path class="st2" d="M29.9,56.3c0-1.5,0.9-2.9,2.3-3.5c0.4-0.2,0.5-0.4,0.5-0.8c0-0.2,0-0.5,0-0.7c0.1-0.4,0.4-0.7,0.9-0.7
	c0.5,0,0.8,0.2,0.9,0.7c0.2,0.8,0.6,1.4,1.3,1.9c1.5,1,2,2.9,1.3,4.6c-0.7,1.6-2.5,2.6-4.2,2.2C31.1,59.6,29.9,58.1,29.9,56.3z
	 M33.7,54.4c-1.1,0-1.9,0.8-1.9,1.9c0,1,0.8,1.9,1.9,1.9c1,0,1.9-0.8,1.9-1.9C35.5,55.3,34.7,54.5,33.7,54.4z"/>
<path class="st2" d="M50.9,18.2c-0.5,0-1-0.1-1.5-0.3c-0.3-0.1-0.4-0.1-0.6,0.1c-0.2,0.2-0.4,0.4-0.6,0.6c-0.4,0.3-0.8,0.2-1.2-0.1
	c-0.3-0.3-0.5-0.9-0.1-1.1c0.9-0.7,0.6-1.4,0.4-2.2c-0.5-2.2,1.1-4.1,3.4-4.4c2.1-0.2,4,1.4,4.1,3.5C54.9,16.3,53.2,18.2,50.9,18.2z
	 M51,16.3c1.1,0,1.9-0.8,1.9-1.9c0-1-0.9-1.9-1.9-1.9c-1,0-1.9,0.8-1.9,1.9C49.1,15.4,49.9,16.3,51,16.3z"/>
<path class="st2" d="M19.5,16.4c0.3,0.2,0.6,0.5,0.8,0.7c0.4,0.4,0.3,0.9,0,1.3c-0.4,0.4-0.9,0.4-1.3,0c-0.5-0.6-0.9-0.7-1.7-0.4
	c-1.7,0.6-3.5-0.3-4.3-1.9c-0.8-1.6-0.4-3.5,0.9-4.6c1.3-1.1,3.3-1.2,4.7-0.1c1.4,1,1.9,2.9,1.2,4.6C19.7,16.1,19.6,16.2,19.5,16.4z
	 M18.2,14.4c0-1-0.9-1.9-1.9-1.9c-1,0-1.9,0.9-1.9,1.9c0,1,0.8,1.9,1.9,1.9C17.3,16.3,18.2,15.4,18.2,14.4z"/>
<path class="st2" d="M19.5,47.1c0.7,1.5,0.8,2.9-0.1,4.2c-1.1,1.6-3.3,2.1-5,1.1c-1.7-1-2.4-3.1-1.5-4.9c0.8-1.8,3-2.6,4.8-1.9
	c0.4,0.2,0.7,0.1,0.9-0.2c0.1-0.1,0.3-0.3,0.4-0.4c0.4-0.3,0.9-0.3,1.3,0c0.4,0.4,0.4,0.9,0.1,1.3C20.1,46.7,19.8,46.9,19.5,47.1z
	 M18.2,49.1c0-1.1-0.8-1.9-1.9-1.9c-1,0-1.9,0.8-1.9,1.9c0,1,0.8,1.8,1.9,1.9C17.3,51,18.1,50.2,18.2,49.1z"/>
<path class="st2" d="M47.8,47.1c-0.3-0.3-0.5-0.5-0.8-0.7c-0.4-0.4-0.4-1,0-1.3c0.4-0.4,0.9-0.4,1.3,0c0.5,0.6,0.9,0.6,1.7,0.4
	c2.1-0.6,4.2,0.6,4.7,2.7c0.5,2.1-0.7,4.1-2.8,4.6c-2.1,0.5-4.1-0.8-4.6-2.9C47.1,49,47.3,48.1,47.8,47.1z M51,47.2
	c-1.1,0-1.9,0.8-1.9,1.9c0,1,0.8,1.8,1.9,1.8c1,0,1.9-0.8,1.9-1.9C52.9,48.1,52,47.2,51,47.2z"/>
<path class="st2" d="M33.6,32.7c-3.1,0-5.6-2.5-5.7-5.7c0-3.1,2.6-5.7,5.7-5.7c3.1,0,5.6,2.6,5.6,5.7C39.3,30.2,36.7,32.7,33.6,32.7
	z M33.6,30.8c2.1,0,3.8-1.7,3.8-3.8c0-2.1-1.7-3.8-3.8-3.8c-2.1,0-3.8,1.7-3.8,3.8C29.9,29.1,31.6,30.8,33.6,30.8z"/>
</svg>
