<?xml version="1.0" encoding="utf-8"?>
<!-- Generator: Adobe Illustrator 27.0.0, SVG Export Plug-In . SVG Version: 6.00 Build 0)  -->
<svg version="1.1" id="Layer_1" xmlns="http://www.w3.org/2000/svg" xmlns:xlink="http://www.w3.org/1999/xlink" x="0px" y="0px"
	 viewBox="0 0 64 64" style="enable-background:new 0 0 64 64;" xml:space="preserve">
<style type="text/css">
	.st0{fill:#CFD8FC;}
	.st1{fill:#6E8AF7;stroke:#1F3BA7;stroke-width:1.5;stroke-miterlimit:10;}
	.st2{fill:#6E8AF7;}
	.st3{fill:#1F3BA7;}
</style>
<circle class="st0" cx="32.1" cy="32.1" r="23"/>
<path class="st1" d="M8.6,27.1c2.6-9.6,8.8-15.7,18.5-18.3c1.4-0.4,2.8-0.5,4.2-0.7c1,0,2.1,0,3.1,0c0.1,0,0.2,0.1,0.3,0.1
	c2.8,0.2,5.4,0.9,7.9,2c1.7,0.7,3.3,1.6,4.8,2.8c-0.8,0.7-1.7,1.4-2.5,2.1c-0.7,0.6-0.5,1.4,0.3,1.6c3.2,1,6.3,2,9.5,3
	c0.8,0.3,1.3-0.2,1.2-1c-0.1-1.1-0.2-2.2-0.4-3.3c-0.3-2.3-0.5-4.6-0.8-6.9c-0.1-0.5-0.2-0.8-0.7-1c-0.4-0.1-0.7,0.1-1,0.3
	c-0.9,0.8-1.8,1.6-2.8,2.4C50.1,10.1,50,10.1,50,10c-3-2.4-6.7-4.1-10.7-5c-1-0.2-2-0.4-3.1-0.5c-0.8-0.1-1.7-0.2-2.5-0.2
	c-0.6,0.2-1.3,0.2-1.9,0c-1.1-0.1-2.1,0.1-3.1,0.3c-0.9,0.2-1.8,0.3-2.7,0.5c-1.4,0.3-2.9,0.7-4.2,1.3C13.7,9.8,8.2,15.8,5.4,24.1
	c-0.8,2.3-1.2,4.6-1.3,7c-0.1,1.2-0.1,2.5,0,3.7c0.1,2.8,0.7,5.4,1.7,8c0.2,0.6,0.8,0.7,1.3,0.4s1-0.7,1.5-1.1
	c0.7-0.5,0.8-0.8,0.5-1.6C7.7,36.1,7.4,31.6,8.6,27.1z"/>
<path class="st2" d="M60,32.3c-1.3-0.1-2.6-0.2-4-0.3c0,2.4-0.3,4.7-0.9,6.9c0,0.1,0,0.3,0.1,0.3c1.1,0.6,2.2,1.3,3.3,1.9
	C59.5,38.3,60,35.4,60,32.3z"/>
<path class="st2" d="M41,54.4c0.4,1.3,0.8,2.5,1.3,3.8c2.8-1.1,5.3-2.5,7.7-4.5c-1-0.9-2-1.8-3-2.6C45.2,52.4,43.2,53.5,41,54.4z"/>
<path class="st2" d="M49.7,48.6c1,0.9,2,1.7,3,2.6c1.4-1.3,3.9-5,4.6-6.7c-1.1-0.7-2.3-1.3-3.4-2C52.7,44.7,51.4,46.7,49.7,48.6z"/>
<path class="st2" d="M13.8,46.9c-0.2-0.3-0.5-0.2-0.7-0.1c-0.7,0.5-1.5,0.9-2.2,1.4c-0.6,0.4-0.6,0.5-0.2,1c1,1.3,2.1,2.4,3.2,3.5
	c0.7,0.6,1.4,1.2,2.2,1.8c0.8-1.1,1.6-2.1,2.4-3.1C16.7,50.1,15.1,48.6,13.8,46.9z"/>
<path class="st2" d="M19,56.4c1.7,1.1,5.6,2.6,7.8,2.9c0.4-1.3,0.8-2.5,1.1-3.8c-2.3-0.5-4.4-1.2-6.5-2.3
	C20.6,54.4,19.8,55.4,19,56.4z"/>
<path class="st2" d="M53.7,23.3c0.9,1.6,1.7,3.2,2,4.9c0,0.2,0.1,0.3,0.3,0.3c1.3,0.1,2.5,0.2,3.8,0.3c0-0.2,0-0.2,0-0.3
	c-0.4-2.7-1.4-5.1-2.7-7.4c-0.2-0.4-0.5-0.4-0.8-0.2c-0.8,0.5-1.5,1-2.3,1.5C53.5,22.6,53.5,22.9,53.7,23.3z"/>
<path class="st2" d="M31.8,56c-0.2,0-0.3,0-0.4,0.2c-0.4,1.2-0.7,2.4-1.1,3.6c0.3,0.1,0.5,0.1,0.8,0.1c0.9,0.1,1.8,0.1,2.7,0
	c1.7,0,3.5-0.3,5.2-0.7c-0.4-1.3-0.9-2.5-1.3-3.8C35.7,55.9,33.7,56.1,31.8,56z"/>
<g>
	<g>
		<path class="st2" d="M35,19.3V17h-2.4v7.5l0,0c4.7,0,8.5,3.8,8.5,8.5s-3.8,8.5-8.5,8.5l0,0V49H35v-2.3c0-0.4,0.3-0.7,0.7-0.7
			c1.4-0.3,2.7-0.8,3.9-1.6c0.3-0.2,0.7-0.2,1,0.1l1.7,1.7l3.4-3.4L44,41c-0.3-0.3-0.3-0.7-0.1-1c0.7-1.2,1.3-2.5,1.6-3.9
			c0.1-0.4,0.4-0.7,0.7-0.7h2.3v-4.9h-2.3c-0.4,0-0.7-0.3-0.7-0.7c-0.3-1.4-0.8-2.7-1.6-3.9c-0.2-0.3-0.2-0.7,0.1-1l1.7-1.7
			l-3.4-3.4l-1.7,1.7c-0.3,0.3-0.7,0.3-1,0.1c-1.2-0.7-2.5-1.3-3.9-1.6C35.3,20.1,35,19.7,35,19.3z"/>
	</g>
	<g>
		<path class="st3" d="M29.2,15.5c-0.5,0-0.8,0.4-0.8,0.8v2.5c-1.1,0.3-2.1,0.7-3.2,1.3l-1.7-1.9c-0.3-0.3-0.8-0.3-1.1,0l-4.6,4.6
			c-0.3,0.3-0.3,0.8,0,1.1l1.8,1.8c-0.6,1-1,2-1.3,3.2h-2.5c-0.5,0-0.8,0.4-0.8,0.8v6.5c0,0.5,0.4,0.8,0.8,0.8h2.5
			c0.3,1.1,0.7,2.1,1.3,3.2L17.9,42c-0.3,0.3-0.3,0.8,0,1.1l4.6,4.6c0.3,0.3,0.8,0.3,1.1,0l1.8-1.8c1,0.6,2,1,3.2,1.3v2.5
			c0,0.5,0.4,0.8,0.8,0.8h6.5c0.5,0,0.8-0.4,0.8-0.8v-2.5c1.1-0.3,2.1-0.7,3.2-1.3l1.8,1.8c0.2,0.2,0.4,0.3,0.6,0.3
			c0.2,0,0.4-0.1,0.6-0.2l4.6-4.6c0.3-0.3,0.3-0.8,0-1.1l-1.8-1.8c0.6-1,1-2,1.3-3.2h2.5c0.5,0,0.8-0.4,0.8-0.8v-6.5
			c0-0.5-0.4-0.8-0.8-0.8H47c-0.3-1.1-0.7-2.1-1.3-3.2l1.8-1.8c0.2-0.2,0.2-0.4,0.2-0.6s-0.1-0.4-0.2-0.6l-4.7-4.7
			c-0.3-0.3-0.8-0.3-1.1,0l-1.8,1.8c-1-0.6-2-1-3.2-1.3v-2.5c0-0.5-0.4-0.8-0.8-0.8L29.2,15.5L29.2,15.5z M39.5,21.7
			c0.3,0.2,0.7,0.2,1-0.1l1.7-1.7l3.4,3.4L43.9,25c-0.3,0.3-0.3,0.7-0.1,1c0.7,1.2,1.3,2.5,1.6,3.9c0.1,0.4,0.4,0.7,0.7,0.7h2.3v4.9
			h-2.3c-0.4,0-0.7,0.3-0.7,0.7c-0.3,1.4-0.8,2.7-1.6,3.9c-0.2,0.3-0.2,0.7,0.1,1l1.7,1.7l-3.4,3.4l-1.7-1.7c-0.3-0.3-0.7-0.3-1-0.1
			c-1.2,0.7-2.5,1.3-3.9,1.6c-0.4,0.1-0.7,0.4-0.7,0.7V49h-2.4h-2.4v-0.4v-1v-0.9c0-0.4-0.3-0.7-0.7-0.7c-0.7-0.2-1.2-0.4-1.8-0.6
			c-0.4-0.1-0.7-0.3-0.9-0.5c-0.4-0.2-0.7-0.4-1.1-0.7c-0.3-0.2-0.7-0.2-1,0.1l-0.2,0.2l-0.7,0.7L23,46l-3.4-3.4l1.7-1.7
			c0.3-0.3,0.3-0.7,0.1-1c-0.1-0.1-0.1-0.2-0.2-0.3c-0.1-0.2-0.3-0.4-0.4-0.7c-0.2-0.4-0.4-0.7-0.6-1.1c-0.1-0.3-0.2-0.5-0.3-0.7
			c-0.1-0.4-0.2-0.7-0.3-1.1c-0.1-0.4-0.4-0.7-0.7-0.7h-2.3V35v-1v-2v-1v-0.7h1.3h0.7h0.3c0.4,0,0.7-0.3,0.7-0.7
			c0.1-0.3,0.1-0.5,0.2-0.7c0.1-0.3,0.2-0.6,0.3-0.8c0.3-0.7,0.7-1.6,1.1-2.2c0.2-0.3,0.2-0.7-0.1-1l-1.7-1.7l0.2-0.2l0.6-0.6
			l0.9-0.9l0.6-0.6l0.9-0.9l0.3-0.3l0.1,0.1l0.7,0.7l0.7,0.7l0,0c0.3,0.3,0.7,0.3,1,0.1c0.4-0.2,0.7-0.5,1.1-0.7
			c0.3-0.1,0.6-0.3,0.7-0.4c0.7-0.3,1.3-0.5,2-0.7c0.4-0.1,0.7-0.4,0.7-0.7v-0.6v-1v-0.7h1.2H32h0.5h2.4v2.3c0,0.4,0.3,0.7,0.7,0.7
			C37,20.4,38.3,21,39.5,21.7z"/>
	</g>
	<g>
		<path class="st3" d="M29,25.3c-0.3,0.1-0.6,0.3-0.8,0.5c-1,0.7-2,1.5-2.6,2.4c-0.1,0.2-0.3,0.4-0.4,0.6c-0.2,0.4-0.4,0.7-0.6,1.1
			c-0.1,0.3-0.2,0.6-0.3,0.8c-0.2,0.7-0.3,1.3-0.3,2c0,0.1,0,0.2,0,0.4c0,0.2,0,0.5,0,0.7c0.1,0.7,0.2,1.4,0.4,2
			c0.1,0.2,0.2,0.5,0.3,0.7c0.2,0.4,0.4,0.7,0.6,1s0.4,0.6,0.6,0.7c0.3,0.4,0.6,0.7,0.8,1c0.2,0.2,0.4,0.4,0.6,0.6
			c0.3,0.3,0.7,0.5,1,0.7s0.6,0.4,0.9,0.5c1,0.5,2.1,0.7,3.4,0.7l0,0c4.7,0,8.5-3.8,8.5-8.5s-3.8-8.5-8.5-8.5l0,0
			C31.3,24.5,30.1,24.8,29,25.3z M39.4,33c0,3.8-3.1,6.9-6.9,6.9s-6.9-3.1-6.9-6.9s3.1-6.9,6.9-6.9S39.4,29.2,39.4,33z"/>
	</g>
</g>
</svg>
