<?xml version="1.0" encoding="utf-8"?>
<!-- Generator: Adobe Illustrator 27.2.0, SVG Export Plug-In . SVG Version: 6.00 Build 0)  -->
<svg version="1.1" id="Layer_1" xmlns="http://www.w3.org/2000/svg" xmlns:xlink="http://www.w3.org/1999/xlink" x="0px" y="0px"
	 viewBox="0 0 64 64" style="enable-background:new 0 0 64 64;" xml:space="preserve">
<style type="text/css">
	.st0{fill:#CFD8FC;}
	.st1{fill:#1F3BA7;}
</style>
<circle class="st0" cx="33.2" cy="32.7" r="26"/>
<g>
	<path class="st1" d="M23.6,9.7c0,0.9,0.7,1.6,1.6,1.6h16.1c0.9,0,1.6-0.7,1.6-1.6l0,0c0-0.9-0.7-1.6-1.6-1.6H25.2
		C24.3,8.1,23.6,8.8,23.6,9.7L23.6,9.7z"/>
	<rect x="16" y="50.2" class="st1" width="34.4" height="3.5"/>
	<path class="st1" d="M13.6,41.4v8h19.6h19.6v-8L39.4,24.6V11.9h-6.2H27v12.7L13.6,41.4z M39.6,27.7h-3.7v-0.7h3.7V27.7z M39.6,30.4
		h-3.7v-0.7h3.7V30.4z M39.6,33h-3.7v-0.7h3.7V33z M18.7,40.8L21,38l4.6,4.6c0.1,0.1,0.1,0.1,0.2,0.1c0.1,0,0.2,0,0.2-0.1
		c0.1-0.1,0.1-0.3,0-0.5l-4.6-4.6l1.6-1.9h0.1l5,5c0.1,0.1,0.1,0.1,0.2,0.1c0.1,0,0.2,0,0.2-0.1c0.1-0.1,0.1-0.3,0-0.5l-4.6-4.6h2.7
		l5,5c0.1,0.1,0.1,0.1,0.2,0.1c0.1,0,0.2,0,0.2-0.1c0.1-0.1,0.1-0.3,0-0.5l-4.6-4.6h15.7l4.3,5.2V47h-29V40.8z"/>
</g>
</svg>
