<?xml version="1.0" encoding="utf-8"?>
<!-- Generator: Adobe Illustrator 27.2.0, SVG Export Plug-In . SVG Version: 6.00 Build 0)  -->
<svg version="1.1" id="Layer_1" xmlns="http://www.w3.org/2000/svg" xmlns:xlink="http://www.w3.org/1999/xlink" x="0px" y="0px"
	 viewBox="0 0 64 64" style="enable-background:new 0 0 64 64;" xml:space="preserve">
<style type="text/css">
	.st0{fill:#CFD8FC;}
	.st1{fill:#1F3BA7;}
	.st2{fill:#FFFFFF;}
</style>
<circle class="st0" cx="33.2" cy="32.7" r="26"/>
<path class="st1" d="M229.5,77.5c0-0.2,0-0.4,0-0.5c0.2,0.1,0.3,0.2,0.2,0.4C229.8,77.4,229.6,77.4,229.5,77.5z"/>
<g>
	<path class="st1" d="M8.3,53.1c-1-0.4-1-0.8-0.8-1.8c0.2-1,0.7-1.8,1.5-2.5c0.9-0.7,1.9-1.3,3.2-1.4c0.7-0.1,1.4,0,2.1-0.1
		c0-5.8,0-11.6,0-17.5C13,29.6,12,29,11.1,28.2c-1-0.9-1.4-2-1.4-3.3c0-0.4,0.4-0.7,0.6-1c1.3-1.9,2.7-3.7,4-5.6c0.7-1,1.5-2,2.2-3
		c0.1-0.2,0.2-0.3,0.2-0.5c0-1.1,0-2.2,0-3.3c0-2.3,2-4.2,4.5-4.7c0.4-0.1,0.8-0.1,1.3-0.1c7.6,0,15.1,0,22.7,0
		c1.6,0,3.2,0.3,4.4,1.3c1,0.8,1.6,1.7,1.8,2.8c0.2,1,0.1,2,0.1,3.1c-0.1,0.9,0.3,1.7,0.9,2.5c2,2.7,3.9,5.4,5.9,8.2
		c0.4,0.5,0.2,1,0.1,1.5c-0.5,1.9-1.9,3.2-4.2,3.7c-0.4,0.1-0.3,0.3-0.3,0.4c0,1.6,0,3.1,0,4.7c0,4,0,8,0,12c0,0.1,0,0.3,0,0.5
		c1.1,0,2.1,0,3,0.3c2.1,0.7,3.4,1.9,3.8,3.7c0,0.2,0.1,0.3,0.1,0.5c0.1,0.6-0.2,1.1-0.9,1.3C42.6,53.1,25.4,53.1,8.3,53.1z
		 M57.9,51.2c0,0,0.1,0,0.1,0c0-0.1,0-0.1-0.1-0.1c-0.2-0.5-0.6-0.8-1.1-1.2c-0.7-0.5-1.6-0.6-2.5-0.6c-2.4,0-4.8,0-7.3,0
		c-8.9,0-17.9,0-26.8,0c-2.3,0-4.7,0-7,0c-1.6,0-2.9,0.8-3.4,1.8c-0.1,0-0.1,0.1-0.1,0.1c0,0,0.1,0,0.1,0c2,0,3.9,0,5.9,0
		c7,0,14.1,0,21.1,0C44,51.2,51,51.2,57.9,51.2z M20.1,27.9c-0.7,0.9-1.8,1.4-3,1.7c-0.4,0.1-0.5,0.2-0.5,0.5c0,5.6,0,11.2,0,16.7
		c0,0.1-0.1,0.2,0.1,0.3c6.1,0,12.3,0,18.5,0c0-0.2,0-0.3,0-0.5c0-4.5,0-9,0-13.6c0-1.1,0.3-1.4,1.7-1.4c3.5,0,7,0,10.5,0
		c1.4,0,1.8,0.3,1.8,1.5c0,4.5,0,8.9,0,13.4c0,0.2,0,0.4,0,0.6c0.8,0,1.5,0,2.3,0c0-0.2,0-0.3,0-0.5c0-2.9,0-5.9,0-8.8
		c0-2.6,0-5.2,0-7.8c0-0.2,0.1-0.4-0.2-0.4c-1.3-0.3-2.4-0.9-3.2-1.8c-1.2,1.2-2.7,2-4.6,2c-1.9,0-3.4-0.7-4.7-1.9
		c-1.2,1.2-2.8,1.9-4.7,1.9c-1.9,0-3.4-0.7-4.6-2C27,30.4,22.7,30.6,20.1,27.9z M18.9,14.3c10.1,0,20.1,0,30.1,0c0-0.9,0-1.8,0-2.6
		c0-0.3-0.1-0.6-0.1-0.9c-0.4-1.4-1.9-2.2-3.7-2.2c-4.9,0-9.8,0-14.7,0c-2.9,0-5.7-0.1-8.6,0.1c-1.6,0.1-2.9,1.4-2.9,2.7
		C18.9,12.3,18.9,13.3,18.9,14.3z M37.5,47.3c3.1,0,6.2,0,9.2,0c0-4.5,0-9,0-13.5c-3.1,0-6.1,0-9.2,0C37.5,38.3,37.5,42.8,37.5,47.3
		z M30.5,16.4c0,0.2,0,0.3,0,0.5c0,2.7,0,5.4,0,8.1c0,0.4,0.1,0.7,0.2,1.1c0.7,1.4,2.6,2.3,4.5,1.7c1.6-0.6,2.2-1.6,2.2-3
		c0-2.7,0-5.3,0-8c0-0.1,0-0.2-0.1-0.4C35.1,16.4,32.9,16.4,30.5,16.4z M23.4,16.4c-0.1,0.3-0.2,0.6-0.2,0.8
		c-0.6,2.4-1.2,4.8-1.7,7.2c-0.1,0.5-0.2,1-0.1,1.5c0.4,1.2,2,2.2,3.7,2c1.7-0.2,3.1-1.4,3.1-2.9c0-2.9,0-5.7,0-8.6c0,0,0,0-0.1-0.1
		C26.5,16.4,25,16.4,23.4,16.4z M39.8,16.4c0,0.1,0,0.1,0,0.2c0,2.8,0,5.6,0,8.4c0,0.3,0,0.6,0.1,0.8c0.6,1.6,2.6,2.6,4.8,1.8
		c1.2-0.5,2.2-2,1.9-3c-0.3-0.9-0.5-1.8-0.7-2.7c-0.5-1.9-0.9-3.8-1.3-5.6C43,16.4,41.4,16.4,39.8,16.4z M21,16.4c-0.3,0-0.7,0-1,0
		c-1.1-0.2-1.9,0.1-2.3,1c-0.1,0.2-0.2,0.3-0.3,0.5c-1.7,2.3-3.3,4.6-5,6.9c-0.2,0.2-0.5,0.4-0.4,0.8c0.5,1.6,1.6,2.4,3.6,2.4
		c1.4,0,2.9-1,3.2-2.2c0.2-0.9,0.4-1.9,0.6-2.8C20,20.7,20.5,18.6,21,16.4z M47,16.4c0.1,0.3,0.1,0.7,0.2,1c0.4,1.6,0.8,3.2,1.2,4.8
		c0.2,1.1,0.5,2.1,0.7,3.2c0.1,1,0.7,1.8,1.8,2.3c1.5,0.7,3.6,0.3,4.6-1c0.3-0.4,0.7-0.9,0.4-1.5c-0.8-1.1-1.6-2.2-2.4-3.3
		c-1.3-1.8-2.6-3.6-3.8-5.4C48.7,16.4,47.9,16.4,47,16.4z"/>
	<path class="st1" d="M20.1,27.9c2.6,2.7,6.9,2.5,9.2,0c1.2,1.2,2.7,2,4.6,2c1.9,0,3.5-0.7,4.7-1.9c1.2,1.2,2.7,1.9,4.7,1.9
		c1.9,0,3.4-0.8,4.6-2c0.9,0.9,1.9,1.5,3.2,1.8c0.3,0.1,0.2,0.2,0.2,0.4c0,2.6,0,5.2,0,7.8c0,2.9,0,5.9,0,8.8c0,0.1,0,0.3,0,0.5
		c-0.8,0-1.5,0-2.3,0c0-0.2,0-0.4,0-0.6c0-4.5,0-8.9,0-13.4c0-1.1-0.4-1.5-1.8-1.5c-3.5,0-7,0-10.5,0c-1.3,0-1.7,0.3-1.7,1.4
		c0,4.5,0,9,0,13.6c0,0.2,0,0.3,0,0.5c-6.2,0-12.3,0-18.5,0c-0.1-0.1-0.1-0.2-0.1-0.3c0-5.6,0-11.2,0-16.7c0-0.3,0.1-0.4,0.5-0.5
		C18.3,29.3,19.3,28.8,20.1,27.9z M25.8,43.4c1.6,0,3.2,0,4.8,0c1.8,0,2.3-0.1,2.2-1.8c-0.1-2.8,0-5.6,0-8.5c0-0.2,0-0.5-0.1-0.7
		c-0.3-0.5-0.9-0.6-1.4-0.6c-3.6,0-7.1,0-10.7,0c-1.2,0-1.6,0.3-1.6,1.4c0,1.8,0,3.6,0,5.4c0,1.2,0,2.4,0,3.6c0,0.7,0.4,1.2,1.4,1.2
		C22.2,43.4,24,43.4,25.8,43.4z"/>
	<path class="st1" d="M18.9,14.3c0-1-0.1-2,0-3c0.1-1.3,1.3-2.6,2.9-2.7c2.9-0.2,5.7-0.1,8.6-0.1c4.9,0,9.8,0,14.7,0
		c1.8,0,3.2,0.8,3.7,2.2c0.1,0.3,0.1,0.6,0.1,0.9c0,0.9,0,1.7,0,2.6C39,14.3,29,14.3,18.9,14.3z"/>
	<path class="st2" d="M10,51c0.5-1,1.8-1.8,3.4-1.8c2.3,0,4.7,0,7,0c8.9,0,17.9,0,26.8,0c2.4,0,4.8,0,7.3,0c0.9,0,1.7,0.2,2.5,0.6
		c0.5,0.3,0.9,0.7,1.1,1.2c0,0.1,0,0.1,0,0.2c-7,0-13.9,0-20.9,0c-7,0-14.1,0-21.1,0c-2,0-3.9,0-5.9,0C10,51.1,10,51,10,51z"/>
	<path class="st2" d="M30.5,16.4c2.3,0,4.6,0,6.9,0c0.1,0.1,0.1,0.2,0.1,0.4c0,2.7,0,5.3,0,8c0,1.4-0.6,2.4-2.2,3
		c-1.9,0.7-3.8-0.3-4.5-1.7c-0.2-0.3-0.2-0.7-0.2-1.1c0-2.7,0-5.4,0-8.1C30.5,16.7,30.5,16.5,30.5,16.4z"/>
	<path class="st2" d="M23.4,16.4c1.6,0,3.2,0,4.7,0c0,0,0.1,0.1,0.1,0.1c0,2.9,0,5.7,0,8.6c0,1.5-1.4,2.7-3.1,2.9
		c-1.7,0.2-3.4-0.9-3.7-2c-0.2-0.5,0-1,0.1-1.5c0.6-2.4,1.1-4.8,1.7-7.2C23.2,16.9,23.3,16.7,23.4,16.4z"/>
	<path class="st2" d="M39.8,16.4c1.6,0,3.2,0,4.8,0c0.4,1.9,0.9,3.8,1.3,5.6c0.2,0.9,0.4,1.8,0.7,2.7c0.4,1-0.6,2.5-1.9,3
		c-2.2,0.8-4.2-0.2-4.8-1.8c-0.1-0.3-0.1-0.6-0.1-0.8c0-2.8,0-5.6,0-8.4C39.8,16.5,39.8,16.5,39.8,16.4z"/>
	<path class="st2" d="M21,16.4c-0.5,2.2-1,4.3-1.5,6.5c-0.2,0.9-0.5,1.9-0.6,2.8c-0.2,1.1-1.8,2.2-3.2,2.2c-2,0-3.1-0.8-3.6-2.4
		c-0.1-0.4,0.2-0.6,0.4-0.8c1.6-2.3,3.3-4.6,5-6.9c0.1-0.1,0.2-0.3,0.3-0.5c0.4-0.9,1.2-1.1,2.3-1C20.3,16.4,20.6,16.4,21,16.4z"/>
	<path class="st2" d="M47,16.4c0.9,0,1.7,0,2.6,0c1.3,1.8,2.6,3.6,3.8,5.4c0.8,1.1,1.6,2.2,2.4,3.3c0.4,0.5-0.1,1-0.4,1.5
		c-1,1.4-3,1.7-4.6,1c-1.1-0.5-1.6-1.3-1.8-2.3c-0.2-1.1-0.5-2.1-0.7-3.2c-0.4-1.6-0.8-3.2-1.2-4.8C47.1,17,47.1,16.7,47,16.4z"/>
	<path class="st1" d="M10,51c0,0.1,0,0.1,0,0.2c0,0-0.1,0-0.1,0C9.9,51.1,9.9,51,10,51z"/>
	<path class="st2" d="M25.8,43.4c-1.8,0-3.6,0-5.4,0c-1.1,0-1.4-0.5-1.4-1.2c0-1.2,0-2.4,0-3.6c0-1.8,0-3.6,0-5.4
		c0-1.1,0.5-1.4,1.6-1.4c3.6,0,7.1,0,10.7,0c0.6,0,1.1,0,1.4,0.6c0.2,0.2,0.1,0.5,0.1,0.7c0,2.8,0,5.6,0,8.5c0,1.8-0.5,1.9-2.2,1.8
		C29,43.4,27.4,43.4,25.8,43.4z M30.5,33.8c-3.1,0-6.1,0-9.2,0c0,2.6,0,5.1,0,7.7c3.1,0,6.1,0,9.2,0C30.5,38.9,30.5,36.3,30.5,33.8z
		"/>
	<path class="st1" d="M42.6,47.2c-1.7,0-3.3,0-5,0c-1,0-1.3-0.7-1.3-1.6c0-1.6,0-3.2,0-4.8c0-2.4,0-4.8,0-7.2c0-1.4,0.4-1.8,1.5-1.8
		c3.3,0,6.5,0,9.8,0c0.5,0,1,0.1,1.3,0.7c0.1,0.3,0.1,0.7,0.1,1c0,3.8,0,7.5,0,11.3c0,2.4-0.4,2.5-2.1,2.4
		C45.5,47.2,44,47.2,42.6,47.2z M46.9,34.4c-2.8,0-5.6,0-8.4,0c0,3.4,0,6.8,0,10.2c2.8,0,5.6,0,8.4,0C46.9,41.3,46.9,37.9,46.9,34.4
		z"/>
</g>
</svg>
