<?xml version="1.0" encoding="utf-8"?>
<!-- Generator: Adobe Illustrator 27.2.0, SVG Export Plug-In . SVG Version: 6.00 Build 0)  -->
<svg version="1.1" id="Layer_1" xmlns="http://www.w3.org/2000/svg" xmlns:xlink="http://www.w3.org/1999/xlink" x="0px" y="0px"
	 viewBox="0 0 64 64" style="enable-background:new 0 0 64 64;" xml:space="preserve">
<style type="text/css">
	.st0{fill:#CFD8FC;}
	.st1{fill:#1F3BA7;}
</style>
<circle class="st0" cx="33.2" cy="32.7" r="26"/>
<g>
	<path class="st1" d="M19.6,60.8c0.2,0.1,0.4,0.1,0.6,0.1c0.8,0,1.5-0.4,1.8-1.1l2.7-6.8h16.1l2.7,6.8c0.3,0.8,1.4,1.2,2.3,1
		c1-0.3,1.5-1.1,1.2-1.9L35.3,29.4c1.6-0.9,2.7-2.7,2.7-4.7c0-3-2.4-5.3-5.3-5.3c-3,0-5.3,2.4-5.3,5.3c0,2,1.1,3.7,2.7,4.7
		L18.4,58.9C18.1,59.7,18.7,60.5,19.6,60.8z M30,24.7c0-1.5,1.2-2.7,2.7-2.7c1.5,0,2.7,1.2,2.7,2.7c0,1.5-1.2,2.7-2.7,2.7
		C31.2,27.3,30,26.1,30,24.7z M32.7,32.7l3.2,8.2h-6.4L32.7,32.7z M28.3,43.9l0.2,0H37l0.2,0l2.4,6H25.9L28.3,43.9z"/>
	<path class="st1" d="M44.9,39.3c-0.8,0.7-1.7,1.3-2.7,1.9c-0.2,0.1-0.3,0.4-0.2,0.6l0.8,2.2c0,0.1,0.2,0.2,0.3,0.3
		c0.1,0,0.3,0,0.4,0c1-0.5,1.9-1.2,2.9-1.9c5.4-4.2,8.5-10.6,8.5-17.5c0-12.2-10-22.2-22.2-22.2c-0.8,0-1.7,0-2.5,0.1
		C20,4,11.8,12.2,10.7,22.4c-0.8,7.7,2.3,15.2,8.4,19.9c0.9,0.7,1.9,1.4,2.9,1.9c0.1,0,0.2,0.1,0.2,0.1l0.2,0
		c0.1-0.1,0.2-0.2,0.3-0.3l0.8-2.2c0.1-0.2,0-0.5-0.2-0.6c-0.9-0.6-1.9-1.2-2.7-1.9c-4.4-3.7-6.8-9.2-6.7-15
		C14.1,14.5,22,6.5,31.8,6c10.8-0.5,19.8,8.2,19.8,18.9C51.6,30.4,49.2,35.7,44.9,39.3z"/>
	<path class="st1" d="M39.1,32.6c-0.2,0.1-0.2,0.3-0.1,0.5l0.8,2.3c0.1,0.1,0.2,0.3,0.3,0.3l0.1,0c0.1,0,0.2,0,0.3-0.1
		c1-0.7,1.9-1.6,2.7-2.5c1.9-2.4,2.9-5.3,2.9-8.3c0-6.3-4.5-11.8-10.6-13.1c-1.8-0.4-3.7-0.4-5.5,0c-6.1,1.3-10.6,6.8-10.6,13.1
		c0,3,1,5.9,2.9,8.3c0.8,1,1.7,1.8,2.7,2.5c0.1,0.1,0.3,0.1,0.4,0.1c0.1,0,0.3-0.2,0.3-0.3l0.8-2.3c0.1-0.2,0-0.4-0.1-0.5
		c-0.9-0.8-1.7-1.7-2.3-2.7c-0.9-1.5-1.4-3.3-1.4-5.1c0-4.2,2.7-8,6.6-9.4c2.2-0.8,4.7-0.8,6.9,0c4,1.4,6.6,5.2,6.6,9.4
		c0,1.8-0.5,3.5-1.4,5.1C40.8,31,40,31.9,39.1,32.6z"/>
	<path class="st1" d="M30,24.7c0,1.5,1.2,2.7,2.7,2.7c1.5,0,2.7-1.2,2.7-2.7c0-1.5-1.2-2.7-2.7-2.7C31.2,22,30,23.2,30,24.7z"/>
</g>
</svg>
