<?xml version="1.0" encoding="utf-8"?>
<!-- Generator: Adobe Illustrator 27.0.0, SVG Export Plug-In . SVG Version: 6.00 Build 0)  -->
<svg version="1.1" id="Layer_1" xmlns="http://www.w3.org/2000/svg" xmlns:xlink="http://www.w3.org/1999/xlink" x="0px" y="0px"
	 viewBox="0 0 64 64" style="enable-background:new 0 0 64 64;" xml:space="preserve">
<style type="text/css">
	.st0{fill:#CFD8FC;}
	.st1{fill:#1F3BA7;}
</style>
<circle class="st0" cx="32.1" cy="32.1" r="23"/>
<path class="st1" d="M-12.7,109.4c-1-4.2,1.3-7.4,5.6-7.8c0.3,0,0.5-0.2,0.6-0.4c2.5-3.6,7.2-3.7,9.9-0.3c0.2,0.3,0.4,0.4,0.8,0.5
	c1.4,0.4,2.5,1.1,3.4,2.3c0.5,0.6,0.5,1.2,0,1.6c-0.5,0.4-1,0.3-1.5-0.3c-1.4-1.6-3.4-2.2-5.3-1.5c-1.9,0.7-3.2,2.6-3,4.6
	c0.2,1.7,1.1,3,2.8,3.7c0.2,0.1,0.4,0.1,0.5,0.2c0.6,0.2,0.9,0.6,0.7,1.3c-0.2,0.7-0.8,0.8-1.4,0.6c-0.4-0.1-0.8-0.3-1.3-0.5
	c0.5,1.3,0.6,2.4,0.3,3.6c1.5,0.9,3.3,0.8,4.8-0.2c1.5-1,2.3-2.9,1.9-4.5c-0.4-1.8-1.9-3.3-3.7-3.6c-0.5-0.1-1-0.1-1.6,0
	c-0.8,0.1-1.3-0.2-1.3-0.9c0-0.7,0.4-1,1.1-1.1c3.2-0.4,6.2,1.3,7.2,4.3c1.1,3-0.2,6.2-3.1,7.8c0.4,0.5,0.9,0.9,1.3,1.4
	c1.4,1.8,1.7,3.8,1,6c-0.1,0.3-0.1,0.5,0.1,0.8c2.8,3.5,1.7,8.2-2.4,10.1c-0.4,0.2-0.5,0.4-0.7,0.7c-2.2,3.2-6.7,3.5-9.3,0.8
	c-0.3-0.4-0.7-0.7-0.6-1.3c-1.6-0.2-3.1-0.7-4.3-1.7c-1.7-1.3-2.7-3-3-5.1c-0.1-0.6-0.3-0.9-0.8-1.3c-2.9-1.9-3.7-5.8-1.9-8.7
	c0.2-0.4,0.3-0.6,0-1c-2.4-3.6-0.9-8.3,3-9.9C-12.9,109.5-12.8,109.5-12.7,109.4z M-11,117.6c0.9-1.6,2.2-2.6,4-3
	c0.6-0.1,1.1-0.1,1.3,0.6c0.1,0.7-0.2,1.1-0.9,1.2c-0.8,0.2-1.5,0.6-2,1.2c-1.3,1.4-1.5,3.1-0.5,4.9c0.3,0.6,0.3,1.1-0.3,1.4
	c-0.6,0.4-1,0-1.3-0.5c-0.4-0.7-0.7-1.3-0.7-2.1c-0.1-0.6-0.3-1.2-0.7-1.7c-1.2-1.5-1.5-3.2-1.1-5.1c0.2-1.1,0.7-2,1.4-2.9
	c-3,1.1-4,4.9-1.9,7.2c0.9,1,0.9,1.2,0,2.3c-1.1,1.4-1.3,3.5-0.4,5c0.9,1.6,2.8,2.5,4.6,2.2c1.9-0.3,3.4-1.6,3.9-3.5
	c0.4-1.8-0.3-3.6-1.9-4.7c-0.7-0.5-0.9-1-0.5-1.5c0.4-0.5,0.9-0.6,1.6-0.1c0.6,0.4,1.1,0.9,1.6,1.4c2.4-1.2,3.4-3.8,2.2-6.1
	c-1.1-2.2-3.8-3.1-6-2.1C-11.2,112.7-12.2,115.5-11,117.6z M-2.8,126.8c0.5-0.5,1-1,1.6-1.3c0.5-0.2,1.1-0.3,1.4,0.3
	c0.3,0.5,0.2,1-0.3,1.4c-0.1,0.1-0.3,0.2-0.4,0.3c-1.8,1.3-2.4,3.7-1.4,5.7c1,1.9,3.3,2.9,5.4,2.3c3-0.9,4.3-4.8,2.3-6.9
	c-0.3,0.3-0.6,0.6-1,0.8c-0.8,0.6-1.5,0.7-1.9,0.1c-0.4-0.6-0.2-1.1,0.6-1.7c0.1,0,0.1-0.1,0.2-0.1c2-1.6,2.2-4.3,0.7-6.3
	c-1.5-1.9-4.4-2.2-6.4-0.7C-3.9,122-4.3,124.8-2.8,126.8z M-10.2,110c1.1-0.6,2.2-0.8,3.3-0.9c1.2-0.1,2.1-0.6,2.5-1.8
	c0.4-1,0.2-2-0.5-2.9c-0.9-1-2.8-1.3-4.1-0.6C-11.4,105.2-11.7,108.3-10.2,110z M-11.4,130.3c0.7,3.7,4.8,6.1,8.3,4.7
	c-0.9-1.1-1.3-2.4-1.3-3.8c-0.1-1.1-1.1-1.8-2.2-1.5c-0.8,0.3-1.2,0.8-1.4,1.6c-0.2,0.6-0.6,0.9-1.2,0.7c-0.6-0.1-0.9-0.6-0.8-1.2
	c0-0.2,0.1-0.3,0.1-0.5C-10.4,130.3-10.8,130.3-11.4,130.3z M-2.9,103.8c1.1-1.4,2.4-2.2,4.1-2.6c-1.8-1.7-5.1-1.1-6,0.8
	C-4,102.5-3.4,103-2.9,103.8z M1.6,137.6c-1.1-0.2-2.1-0.5-3-1c-0.1-0.1-0.3-0.1-0.5-0.1c-0.7,0.2-1.4,0.5-2.1,0.7
	C-2.3,138.8,0,139,1.6,137.6z"/>
<path class="st1" d="M14.1,30.8c0-6.6,0-13.3,0-19.9c0-1.3,0.5-2.4,1.6-3.2C16.4,7.2,17.3,7,18.2,7c7.6,0,15.2,0,22.7,0
	c0.4,0,0.7-0.1,0.9-0.4c2.1-2.6,5.7-3.5,8.8-2.1c3,1.3,4.8,4.5,4.4,7.7c-0.5,3.4-3,6-6.3,6.5c-0.3,0-0.5,0.1-0.8,0.1
	c-0.3,0-0.4,0.1-0.3,0.4c0,0.1,0,0.3,0,0.4c0,10.4,0,20.7,0,31.1c0,2.4-1.6,4-4,4c-8.5,0-17,0-25.5,0c-2.4,0-4-1.6-4-4
	C14.1,44.1,14.1,37.5,14.1,30.8z M15.3,13c0,0.2,0,0.3,0,0.4c0,12.4,0,24.9,0,37.3c0,1.6,1.1,2.8,2.8,2.8c3.6,0,7.3,0,10.9,0
	c4.9,0,9.8,0,14.7,0c1.6,0,2.8-1.1,2.8-2.7c0-10.6,0-21.1,0-31.7c0-0.4-0.1-0.5-0.5-0.5c-2.6-0.6-4.4-2.2-5.4-4.7
	c-0.1-0.4-0.3-0.5-0.7-0.5c-7.5,0-14.9,0-22.4,0C16.8,13.4,16.1,13.5,15.3,13z M47.6,17.6c3.4,0,6.3-2.8,6.3-6.3
	c0-3.4-2.8-6.3-6.3-6.3c-3.5,0-6.3,2.8-6.3,6.3C41.3,14.7,44.2,17.6,47.6,17.6z M40.8,8.3c-0.2-0.1-0.3-0.1-0.4-0.1
	c-7.5,0-14.9,0-22.4,0c-1.3,0-2.3,1-2.6,2.1c-0.2,1.1,0.4,1.9,1.5,1.9c7.6,0,15.2,0,22.8,0c0.2,0,0.3,0,0.5-0.1
	C40.1,10.8,40.3,9.5,40.8,8.3z"/>
<path class="st1" d="M17.1,27.8c0-1.2,0-2.3,0-3.5c0-1.2,0.8-2,1.9-2c1.1,0,1.9,0.8,1.9,2c0,2.2,0,4.4,0,6.6c0,1.9,1.3,3.3,3.1,3.3
	c1.8,0,3.2-1.4,3.2-3.2c0-2.3,0-4.5,0-6.8c0-1,0.7-1.8,1.7-1.9c1-0.1,1.9,0.6,2.1,1.6c0,0.2,0,0.3,0,0.5c0,2.3,0,4.5,0,6.8
	c0,3.6-2.8,6.6-6.5,6.9c-3.5,0.3-6.8-2.3-7.4-5.7c-0.2-1.4-0.1-2.7-0.1-4.1C17.1,28,17.1,27.9,17.1,27.8z M29.9,27.9
	C29.9,27.9,30,27.9,29.9,27.9c0-0.8,0-1.6,0-2.4c0-0.5,0-0.9,0-1.4c0-0.4-0.4-0.7-0.8-0.7c-0.4,0-0.7,0.3-0.7,0.7c0,0.1,0,0.3,0,0.4
	c0,2.1,0,4.2,0,6.3c0,1.2-0.4,2.2-1.2,3.1c-1.3,1.3-3.1,1.7-4.8,1.1c-1.6-0.6-2.7-2.2-2.7-4c0-2.2,0-4.4,0-6.6c0-0.6-0.3-0.9-0.7-1
	c-0.5,0-0.8,0.4-0.8,1c0,2.2,0,4.4,0,6.6c0,3.1,2.5,5.7,5.7,5.8c3.1,0.1,5.7-2.3,5.9-5.4C30,30.3,29.9,29.1,29.9,27.9z"/>
<path class="st1" d="M38.3,26.9c0.6-0.8,1.2-1.6,1.7-2.3c0.4-0.5,0.7-1,1.1-1.5c0.7-0.9,1.9-1.1,2.7-0.4c0.9,0.6,1,1.8,0.4,2.7
	c-1.1,1.5-2.2,2.9-3.3,4.4c-0.2,0.3-0.2,0.5,0,0.8c1.1,1.4,2.2,2.9,3.3,4.4c0.7,1,0.5,2.3-0.6,2.9c-0.9,0.5-1.9,0.2-2.6-0.6
	c-0.8-1.1-1.7-2.2-2.5-3.3c-0.1-0.1-0.2-0.2-0.3-0.3c-0.2,0-0.3,0.2-0.3,0.3c-0.9,1.2-1.7,2.3-2.6,3.5c-0.6,0.8-1.6,1-2.4,0.5
	c-0.8-0.5-1.2-1.4-0.9-2.3c0.1-0.3,0.3-0.5,0.5-0.8c1-1.4,2.1-2.8,3.1-4.2c0.2-0.2,0.2-0.4,0-0.6c-1.1-1.5-2.2-3-3.3-4.5
	c-0.5-0.6-0.5-1.5-0.1-2.2c0.4-0.7,1.2-1,2-0.9c0.5,0.1,0.9,0.4,1.2,0.8c0.8,1.1,1.6,2.1,2.4,3.2C38,26.5,38.1,26.6,38.3,26.9z
	 M42.7,36.8c0.6,0,0.9-0.6,0.6-1.1c-0.1-0.2-0.2-0.3-0.3-0.5c-1.1-1.5-2.3-3.1-3.4-4.6c-0.3-0.4-0.3-0.7,0-1.1
	c0.7-0.9,1.4-1.8,2-2.7c0.5-0.7,1.1-1.5,1.6-2.2c0.3-0.4,0.2-0.8-0.1-1c-0.3-0.3-0.7-0.2-1.1,0.1C42,23.8,42,23.9,41.9,24
	c-1,1.3-2,2.7-3,4c-0.5,0.6-0.8,0.6-1.3,0c-0.3-0.4-0.6-0.8-0.9-1.2c-0.7-1-1.5-2-2.2-3c-0.2-0.3-0.5-0.5-0.8-0.4
	c-0.3,0.1-0.5,0.3-0.6,0.6c-0.1,0.3,0.1,0.5,0.3,0.7c1.2,1.6,2.4,3.2,3.5,4.8c0.4,0.5,0.4,0.7,0,1.2c-1.2,1.6-2.4,3.2-3.5,4.8
	c-0.2,0.2-0.3,0.5-0.3,0.8c0.1,0.3,0.3,0.5,0.5,0.6c0.4,0.1,0.6-0.1,0.9-0.4c1-1.4,2.1-2.8,3.1-4.2c0.4-0.6,0.8-0.6,1.2,0
	c1,1.4,2.1,2.8,3.1,4.2C42.2,36.6,42.4,36.8,42.7,36.8z"/>
<path class="st1" d="M30.9,52.5c-2.1,0-3.9-1.7-3.9-3.8c0-2.1,1.7-3.9,3.9-3.9c2.1,0,3.9,1.7,3.9,3.9C34.7,50.8,33,52.5,30.9,52.5z
	 M30.9,51.3c1.5,0,2.7-1.2,2.7-2.7c0-1.5-1.2-2.7-2.7-2.7c-1.5,0-2.7,1.2-2.7,2.7C28.2,50.1,29.4,51.3,30.9,51.3z"/>
<path class="st1" d="M46.3,12.6c1.3-1.3,2.5-2.5,3.6-3.6c0.5-0.5,0.8-0.6,1.1-0.3c0.3,0.3,0.2,0.6-0.3,1.1c-1.3,1.3-2.5,2.5-3.8,3.8
	c-0.5,0.5-0.8,0.5-1.3,0c-0.5-0.5-1-1-1.5-1.5c-0.3-0.3-0.4-0.7-0.1-0.9c0.3-0.3,0.6-0.3,1,0.1C45.5,11.7,45.9,12.2,46.3,12.6z"/>
<path class="st1" d="M34.7,9.6c0.8,0,1.6,0,2.4,0c0.5,0,0.7,0.2,0.7,0.6c0,0.4-0.3,0.6-0.7,0.6c-1.7,0-3.3,0-5,0
	c-0.4,0-0.7-0.2-0.7-0.6c0-0.4,0.3-0.6,0.7-0.6C33,9.6,33.8,9.6,34.7,9.6C34.7,9.6,34.7,9.6,34.7,9.6z"/>
<path class="st1" d="M25.8,10.8c-0.4,0-0.8,0-1.2,0c-0.4,0-0.6-0.3-0.6-0.6c0-0.4,0.2-0.6,0.6-0.6c0.8,0,1.7,0,2.5,0
	c0.4,0,0.6,0.2,0.6,0.6c0,0.3-0.2,0.6-0.6,0.6C26.6,10.8,26.2,10.8,25.8,10.8z"/>
<path class="st1" d="M29.9,27.9c0,1.2,0.1,2.3,0,3.5c-0.2,3.1-2.9,5.5-5.9,5.4c-3.2-0.1-5.7-2.6-5.7-5.8c0-2.2,0-4.4,0-6.6
	c0-0.6,0.3-1,0.8-1c0.5,0,0.7,0.4,0.7,1c0,2.2,0,4.4,0,6.6c0,1.8,1.1,3.4,2.7,4c1.7,0.7,3.5,0.3,4.8-1.1c0.8-0.9,1.2-1.9,1.2-3.1
	c0-2.1,0-4.2,0-6.3c0-0.1,0-0.3,0-0.4c0-0.4,0.3-0.7,0.7-0.7c0.4,0,0.7,0.3,0.8,0.7c0,0.5,0,0.9,0,1.4C30,26.3,30,27.1,29.9,27.9
	C30,27.9,29.9,27.9,29.9,27.9z"/>
<path class="st1" d="M42.7,36.8c-0.3,0-0.5-0.2-0.7-0.4c-1-1.4-2.1-2.8-3.1-4.2c-0.4-0.6-0.8-0.6-1.2,0c-1,1.4-2.1,2.8-3.1,4.2
	c-0.2,0.3-0.5,0.5-0.9,0.4c-0.3-0.1-0.5-0.3-0.5-0.6c-0.1-0.3,0.1-0.5,0.3-0.8c1.2-1.6,2.4-3.2,3.5-4.8c0.4-0.5,0.4-0.7,0-1.2
	c-1.2-1.6-2.4-3.2-3.5-4.8c-0.2-0.2-0.3-0.4-0.3-0.7c0.1-0.3,0.3-0.5,0.6-0.6c0.4-0.1,0.6,0.1,0.8,0.4c0.7,1,1.5,2,2.2,3
	c0.3,0.4,0.6,0.8,0.9,1.2c0.5,0.6,0.8,0.6,1.3,0c1-1.3,2-2.7,3-4c0.1-0.1,0.1-0.2,0.2-0.3c0.3-0.3,0.7-0.4,1.1-0.1
	c0.3,0.3,0.4,0.6,0.1,1c-0.5,0.7-1.1,1.5-1.6,2.2c-0.7,0.9-1.4,1.8-2,2.7c-0.3,0.4-0.3,0.7,0,1.1c1.1,1.5,2.3,3,3.4,4.6
	c0.1,0.2,0.3,0.3,0.3,0.5C43.6,36.2,43.3,36.8,42.7,36.8z"/>
<path class="st1" d="M30.9,51.3c-1.5,0-2.7-1.2-2.7-2.7c0-1.5,1.2-2.7,2.7-2.7c1.5,0,2.7,1.2,2.7,2.7C33.6,50.1,32.4,51.3,30.9,51.3
	z"/>
</svg>
