<?xml version="1.0" encoding="utf-8"?>
<!-- Generator: Adobe Illustrator 27.0.0, SVG Export Plug-In . SVG Version: 6.00 Build 0)  -->
<svg version="1.1" id="Capa_1" xmlns="http://www.w3.org/2000/svg" xmlns:xlink="http://www.w3.org/1999/xlink" x="0px" y="0px"
	 viewBox="0 0 20 20" style="enable-background:new 0 0 20 20;" xml:space="preserve">
<style type="text/css">
	.st0{fill-rule:evenodd;clip-rule:evenodd;fill:#3A73B8;stroke:#3A73B8;stroke-width:0.4772;stroke-miterlimit:10;}
</style>
<g id="Symbols">
	<g id="Social-_x2F_-Whatsapp" transform="translate(-10.000000, -9.000000)">
		<g id="Whatsapp" transform="translate(10.000000, 9.000000)">
			<path id="Shape" class="st0" d="M16.8,3.2c-1.8-1.8-4.2-2.8-6.7-2.8c-5.2,0-9.5,4.2-9.5,9.5c0,1.7,0.4,3.3,1.3,4.7l-1.3,4.9
				l5-1.3c1.4,0.8,2.9,1.2,4.5,1.2l0,0c5.2,0,9.5-4.2,9.5-9.5C19.5,7.4,18.6,5,16.8,3.2z M10.1,17.8L10.1,17.8c-1.4,0-2.8-0.4-4-1.1
				l-0.3-0.2l-3,0.8l0.8-2.9l-0.2-0.3c-0.8-1.3-1.2-2.7-1.2-4.2C2.2,5.6,5.7,2,10.1,2c2.1,0,4.1,0.8,5.6,2.3S18,7.8,18,9.9
				C17.9,14.3,14.4,17.8,10.1,17.8z M14.4,11.9c-0.2-0.1-1.4-0.7-1.6-0.8c-0.2-0.1-0.4-0.1-0.5,0.1c-0.2,0.2-0.6,0.8-0.7,0.9
				c-0.1,0.2-0.3,0.2-0.5,0.1s-1-0.4-1.9-1.2C8.5,10.4,8,9.6,7.9,9.4S7.9,9,8,8.9c0-0.1,0.1-0.2,0.2-0.4c0.1-0.1,0.2-0.2,0.2-0.4
				c0.1-0.2,0-0.3,0-0.4c0-0.1-0.5-1.3-0.7-1.7C7.5,5.5,7.3,5.6,7.2,5.5c-0.1,0-0.3,0-0.5,0S6.2,5.6,6.1,5.8C5.9,6,5.3,6.6,5.3,7.8
				s0.8,2.3,1,2.4c0.1,0.2,1.7,2.5,4,3.6c0.4,0.2,0.9,0.4,1.3,0.5c0.6,0.2,1.1,0.2,1.5,0.1c0.5-0.1,1.4-0.6,1.6-1.1
				c0.2-0.6,0.2-1,0.1-1.1C14.8,12.1,14.6,12,14.4,11.9L14.4,11.9z"/>
		</g>
	</g>
</g>
</svg>
