<?xml version="1.0" encoding="utf-8"?>
<!-- Generator: Adobe Illustrator 27.0.0, SVG Export Plug-In . SVG Version: 6.00 Build 0)  -->
<svg version="1.1" id="Capa_1" xmlns="http://www.w3.org/2000/svg" xmlns:xlink="http://www.w3.org/1999/xlink" x="0px" y="0px"
	 viewBox="0 0 24 24" style="enable-background:new 0 0 24 24;" xml:space="preserve">
<style type="text/css">
	.st0{fill:#FFFFFF;}
</style>
<g>
	<path class="st0" d="M18.2-35.1h9.2v3.1h-6v4.4h5.5v3.1h-5.5v4.8h6.1v3.1h-9.3V-35.1z"/>
	<path class="st0" d="M33.2-35.1l4.2,9.3c0.9,2.2,1.5,3.4,1.6,3.8c0.1,0.2,0.3,0.7,0.6,1.5c-0.1-1-0.2-1.9-0.2-2.9
		c0-0.4,0-0.9,0-1.6l-0.1-10.1h2.9v18.6h-3.7L33.7-27c-0.4-0.8-0.7-1.5-0.8-1.9c-0.3-0.7-0.5-1.4-0.8-2.1c0.1,0.8,0.1,1.6,0.2,2.5
		c0,0.2,0,0.4,0,0.8c0,0.4,0,0.6,0,0.8l0.1,10.3h-2.9v-18.5H33.2z"/>
</g>
<g>
	<path class="st0" d="M0.4,3h10.1v3.2H3.9v4.5h6v3.1h-6v4.9h6.6v3.2H0.4V3z"/>
	<path class="st0" d="M23.7,21.8h-3.2v-6.7c0-1.5-0.1-2.6-0.3-3.1c-0.2-0.5-0.5-0.8-0.8-1.1c-0.3-0.2-0.7-0.3-1.2-0.3
		c-0.9,0-1.7,0.4-2.2,1.3c-0.4,0.7-0.7,1.8-0.7,3.4v6.5h-3.3V11.2c0-1.5-0.1-2.6-0.1-3.3H15l0,2.2c0.4-0.7,1-1.2,1.5-1.6
		c0.8-0.5,1.8-0.8,2.8-0.8c0.5,0,1,0.1,1.4,0.2C21.4,8,22,8.4,22.4,8.9c0.5,0.5,0.8,1.1,1,1.8c0.1,0.6,0.2,1.9,0.3,3.9V21.8z"/>
</g>
</svg>
