<?xml version="1.0" encoding="utf-8"?>
<!-- Generator: Adobe Illustrator 23.0.3, SVG Export Plug-In . SVG Version: 6.00 Build 0)  -->
<svg version="1.1" id="Layer_1" xmlns="http://www.w3.org/2000/svg" xmlns:xlink="http://www.w3.org/1999/xlink" x="0px" y="0px"
	 viewBox="0 0 14 16.4" style="enable-background:new 0 0 14 16.4;" xml:space="preserve">
<style type="text/css">
	.st0{fill-rule:evenodd;clip-rule:evenodd;fill:#f8144d;}
</style>
<title>XING Outline</title>
<desc>Created with Sketch.</desc>
<g id="Symbols">
	<g transform="translate(1.000000, 1.000000)">
		<g id="XING-Outline">
			<g id="XING" transform="translate(9.000000, 9.000000)">
				<path id="Path" class="st0" d="M1.2-10c-0.3,0-0.5,0.2-0.6,0.5c0,0-5.1,9.1-5.3,9.3L-1.4,6C-1.2,6.2-1,6.4-0.7,6.4h2.4
					c0,0,0.3,0,0.3,0C2.1,6.3,2.1,6.1,2,6l-3.3-6.1l5.3-9.4C4-9.6,4-9.8,3.9-9.9c-0.1,0-0.2,0-0.3,0L1.2-10z"/>
				<path class="st0" d="M-8.7-6.8c-0.1,0-0.2,0-0.3,0c-0.1,0.1-0.1,0.3,0,0.4l1.6,2.8L-10,1c0,0.1,0,0.3,0,0.4c0.1,0,0.3,0,0.4,0
					h2.3C-7,1.4-6.7,1.3-6.6,1c0,0,2.5-4.3,2.6-4.5l-1.6-2.7c-0.1-0.3-0.3-0.5-0.5-0.6H-8.7z"/>
			</g>
		</g>
	</g>
</g>
</svg>
