<?xml version="1.0" encoding="utf-8"?>
<!-- Generator: Adobe Illustrator 26.0.1, SVG Export Plug-In . SVG Version: 6.00 Build 0)  -->
<svg version="1.1" id="Capa_1" xmlns="http://www.w3.org/2000/svg" xmlns:xlink="http://www.w3.org/1999/xlink" x="0px" y="0px"
	 viewBox="0 0 18 18" style="enable-background:new 0 0 18 18;" xml:space="preserve">
<style type="text/css">
	.st0{fill-rule:evenodd;clip-rule:evenodd;fill:#3A73B8;}
</style>
<desc>Created with Sketch.</desc>
<g id="Symbols">
	<g id="Social-_x2F_-Linkedin--Copy" transform="translate(-11.000000, -10.000000)">
		<g id="linkedin-2" transform="translate(11.000000, 10.000000)">
			<g id="linkedin">
				<path id="Shape" class="st0" d="M17.4,17.5h-3.6v-5.6c0-1.3,0-3-1.9-3c-1.9,0-2.1,1.4-2.1,2.9v5.7H6.4V6h3.4v1.6h0
					c0.5-0.9,1.6-1.8,3.4-1.8c3.6,0,4.3,2.4,4.3,5.5L17.4,17.5L17.4,17.5z M2.3,4.4c-1.1,0-2.1-0.9-2.1-2.1c0-1.1,0.9-2.1,2.1-2.1
					c1.1,0,2.1,0.9,2.1,2.1C4.4,3.5,3.5,4.4,2.3,4.4z M4.1,17.5H0.6V6h3.6V17.5z"/>
			</g>
		</g>
	</g>
</g>
</svg>
