<?xml version="1.0" encoding="utf-8"?>
<!-- Generator: Adobe Illustrator 27.0.0, SVG Export Plug-In . SVG Version: 6.00 Build 0)  -->
<svg version="1.1" id="Capa_1" xmlns="http://www.w3.org/2000/svg" xmlns:xlink="http://www.w3.org/1999/xlink" x="0px" y="0px"
	 viewBox="0 0 353 334" style="enable-background:new 0 0 353 334;" xml:space="preserve">
<style type="text/css">
	.st0{fill:#3775C4;}
	.st1{fill:#FFFFFF;}
</style>
<path class="st0" d="M290.5,336h-228C28,336,0,308,0,273.5v-209C0,30,28,2,62.5,2h228C325,2,353,30,353,64.5v209
	C353,308,325,336,290.5,336z"/>
<g>
	<path class="st1" d="M181,157.5l-75.2-79.2L185,3.1l0,0C226.6,46.9,224.8,116,181,157.5L181,157.5z"/>
	<path class="st1" d="M87.6,246.2L12.4,167l79.2-75.2l0,0C133.1,135.5,131.3,204.7,87.6,246.2L87.6,246.2z"/>
	<path class="st1" d="M172,176.5l75.2,79.2L168,330.9l0,0C126.4,287.1,128.2,218,172,176.5L172,176.5z"/>
	<path class="st1" d="M265.4,87.8l75.2,79.2l-79.2,75.2l0,0C219.9,198.5,221.7,129.3,265.4,87.8L265.4,87.8z"/>
</g>
</svg>
