<?xml version="1.0" encoding="utf-8"?>
<!-- Generator: Adobe Illustrator 27.2.0, SVG Export Plug-In . SVG Version: 6.00 Build 0)  -->
<svg version="1.1" id="Capa_1" xmlns="http://www.w3.org/2000/svg" xmlns:xlink="http://www.w3.org/1999/xlink" x="0px" y="0px"
	 viewBox="0 0 260 51.9" style="enable-background:new 0 0 260 51.9;" xml:space="preserve">
<style type="text/css">
	.st0{fill:#020202;}
	.st1{fill:#FFFFFF;}
	.st2{fill:none;stroke:#FFFFFF;stroke-width:1.6821;stroke-miterlimit:10;}
</style>
<path class="st0" d="M-198.4-712.2c0,30.1,0,59.8,0,89.8c-9.5,0-18.5,0-27.9,0c0-37.9,0-75.8,0-113.7c1.2-1,2.7-0.4,4.2-0.4
	c26.1,0,52.3,0,78.4,0c16.8,0,27.4,10.5,27.4,27.3c0,28.8,0,57.6,0,86.8c-9.3,0-18.5,0-27.8,0c-0.9-1.6-0.4-3.5-0.4-5.2
	c0-24.8,0-49.7,0-74.5c0-8-2-9.9-10.1-9.9C-169.1-712.2-183.5-712.2-198.4-712.2z"/>
<rect x="-437.7" y="-727.9" class="st1" width="11.4" height="135.6"/>
<path class="st1" d="M64.7,39.6v-25c3-1.2,6.3-1.8,9.9-1.8c5.8,0,10.7,2.5,10.7,8.8v18h-3.5V22c0-4.5-2.9-6.5-7.2-6.5
	c-2.3,0-4.3,0.4-6.1,1l-0.3,0.1v23H64.7z"/>
<path class="st2" d="M64.7,39.6v-25c3-1.2,6.3-1.8,9.9-1.8c5.8,0,10.7,2.5,10.7,8.8v18h-3.5V22c0-4.5-2.9-6.5-7.2-6.5
	c-2.3,0-4.3,0.4-6.1,1l-0.3,0.1v23H64.7z"/>
<path class="st1" d="M94.5,37.1c-2-1.7-2.9-4.1-2.9-6.9v-7.3c0-2.9,0.9-5.3,2.9-7c2-1.8,4.6-2.7,7.9-2.7c3.2,0,5.9,0.9,7.9,2.7
	c1.9,1.7,2.9,4.1,2.9,7v7.3c0,2.9-0.9,5.2-2.9,6.9s-4.6,2.7-7.9,2.7C99,39.7,96.4,38.8,94.5,37.1 M96.8,17.9
	c-1.3,1.1-1.9,2.8-1.9,4.9v7.3c0,2.1,0.7,3.7,1.9,4.9c1.3,1.1,3.1,1.7,5.4,1.7s4.1-0.6,5.4-1.7c1.3-1.1,1.9-2.8,1.9-4.9v-7.3
	c0-2.1-0.7-3.8-1.9-4.9c-1.3-1.2-3.1-1.8-5.4-1.8C100,16.1,98.2,16.6,96.8,17.9"/>
<path class="st2" d="M94.5,37.1c-2-1.7-2.9-4.1-2.9-6.9v-7.3c0-2.9,0.9-5.3,2.9-7c2-1.8,4.6-2.7,7.9-2.7c3.2,0,5.9,0.9,7.9,2.7
	c1.9,1.7,2.9,4.1,2.9,7v7.3c0,2.9-0.9,5.2-2.9,6.9s-4.6,2.7-7.9,2.7C99,39.7,96.4,38.8,94.5,37.1z M96.8,17.9
	c-1.3,1.1-1.9,2.8-1.9,4.9v7.3c0,2.1,0.7,3.7,1.9,4.9c1.3,1.1,3.1,1.7,5.4,1.7s4.1-0.6,5.4-1.7c1.3-1.1,1.9-2.8,1.9-4.9v-7.3
	c0-2.1-0.7-3.8-1.9-4.9c-1.3-1.2-3.1-1.8-5.4-1.8C100,16.1,98.2,16.6,96.8,17.9z"/>
<polygon class="st1" points="115.4,12.9 119.2,12.9 127.2,36.5 135.2,12.9 139,12.9 129.3,39.6 125,39.6 "/>
<polygon class="st2" points="115.4,12.9 119.2,12.9 127.2,36.5 135.2,12.9 139,12.9 129.3,39.6 125,39.6 "/>
<path class="st1" d="M159.9,39.5v-2c-0.3,0.2-0.6,0.4-0.9,0.6c-0.5,0.3-0.9,0.5-1.5,0.8c-1.2,0.5-2.8,0.9-4.7,0.9
	c-3.1,0-6.2-0.9-8.4-3c-1-1-1.9-2.4-2.7-4.1c-0.7-1.6-0.9-3.7-0.9-6.1c0-3.8,1.2-7.2,3.4-9.6c1.1-1.2,2.4-2.2,4-2.8
	c1.6-0.7,3.3-1,5.3-1c2.5,0,4.5,0.2,6,0.6s2.8,0.7,3.7,0.9v25.1L159.9,39.5L159.9,39.5z M159.9,16.8c-0.7-0.2-1.3-0.4-2.3-0.6
	c-0.9-0.2-2.3-0.2-4-0.2c-1.4,0-2.8,0.3-3.8,0.8c-1.1,0.6-2.1,1.2-2.9,2.1c-0.9,0.9-1.4,2-1.8,3.3c-0.5,1.3-0.7,2.8-0.7,4.3
	c0,1.8,0.3,3.3,0.8,4.6s1.1,2.3,1.9,3.1c0.8,0.8,1.6,1.3,2.7,1.7c1,0.4,2,0.6,3,0.6c3,0,5.7-1,7.1-2.2V16.8L159.9,16.8z"/>
<path class="st2" d="M159.9,39.5v-2c-0.3,0.2-0.6,0.4-0.9,0.6c-0.5,0.3-0.9,0.5-1.5,0.8c-1.2,0.5-2.8,0.9-4.7,0.9
	c-3.1,0-6.2-0.9-8.4-3c-1-1-1.9-2.4-2.7-4.1c-0.7-1.6-0.9-3.7-0.9-6.1c0-3.8,1.2-7.2,3.4-9.6c1.1-1.2,2.4-2.2,4-2.8
	c1.6-0.7,3.3-1,5.3-1c2.5,0,4.5,0.2,6,0.6s2.8,0.7,3.7,0.9v25.1L159.9,39.5L159.9,39.5z M159.9,16.8c-0.7-0.2-1.3-0.4-2.3-0.6
	c-0.9-0.2-2.3-0.2-4-0.2c-1.4,0-2.8,0.3-3.8,0.8c-1.1,0.6-2.1,1.2-2.9,2.1c-0.9,0.9-1.4,2-1.8,3.3c-0.5,1.3-0.7,2.8-0.7,4.3
	c0,1.8,0.3,3.3,0.8,4.6s1.1,2.3,1.9,3.1c0.8,0.8,1.6,1.3,2.7,1.7c1,0.4,2,0.6,3,0.6c3,0,5.7-1,7.1-2.2V16.8L159.9,16.8z"/>
<path class="st1" d="M169.3,4.4h3.4V13h6.4v2.8h-6.4v14.7c0,4.1,1.4,6.1,4.4,6.1h0.9c0.5,0,0.8,0,1.1-0.1v2.8
	c-0.4,0.1-0.8,0.1-1.2,0.1h-1.2c-5.4,0-7.3-4.2-7.3-9L169.3,4.4L169.3,4.4z"/>
<path class="st2" d="M169.3,4.4h3.4V13h6.4v2.8h-6.4v14.7c0,4.1,1.4,6.1,4.4,6.1h0.9c0.5,0,0.8,0,1.1-0.1v2.8
	c-0.4,0.1-0.8,0.1-1.2,0.1h-1.2c-5.4,0-7.3-4.2-7.3-9L169.3,4.4L169.3,4.4z"/>
<rect x="184.2" y="12.9" class="st1" width="3.3" height="26.7"/>
<rect x="184.2" y="12.9" class="st2" width="3.3" height="26.7"/>
<path class="st1" d="M197,12.9v17.8c0,4.4,2.8,6.6,7,6.6c2.3,0,4.3-0.4,6.1-1l0.3-0.1V12.9h3.5v25.3c-2.9,1.2-6.3,1.9-9.8,1.9
	c-5.9,0-10.6-2.5-10.6-8.9V12.9H197z"/>
<path class="st2" d="M197,12.9v17.8c0,4.4,2.8,6.6,7,6.6c2.3,0,4.3-0.4,6.1-1l0.3-0.1V12.9h3.5v25.3c-2.9,1.2-6.3,1.9-9.8,1.9
	c-5.9,0-10.6-2.5-10.6-8.9V12.9H197z"/>
<path class="st1" d="M221.1,14.6c2.9-1.2,6.1-1.8,9.2-1.8c3.9,0,6.7,1,8.5,3l0.3,0.4l0.3-0.3c2.4-2.1,5.7-3.1,8.8-3.1
	c5.2,0,9.1,3,9.1,8.5v18.3h-3.5v-18c0-3.8-2.8-6.2-6.5-6.2c-2.7,0-4.7,0.9-6.4,2.6l-0.1,0.1v21.6h-3.5V20.9c0-3.9-3.5-5.5-6.8-5.5
	c-2.1,0-4,0.4-5.7,1l-0.3,0.1v23h-3.6L221.1,14.6L221.1,14.6z"/>
<path class="st2" d="M221.1,14.6c2.9-1.2,6.1-1.8,9.2-1.8c3.9,0,6.7,1,8.5,3l0.3,0.4l0.3-0.3c2.4-2.1,5.7-3.1,8.8-3.1
	c5.2,0,9.1,3,9.1,8.5v18.3h-3.5v-18c0-3.8-2.8-6.2-6.5-6.2c-2.7,0-4.7,0.9-6.4,2.6l-0.1,0.1v21.6h-3.5V20.9c0-3.9-3.5-5.5-6.8-5.5
	c-2.1,0-4,0.4-5.7,1l-0.3,0.1v23h-3.6L221.1,14.6L221.1,14.6z"/>
<path class="st1" d="M27,51.2l10.9-10.9l-11-11l-1.1,1.1c-5.3,5.3-5.4,14.1,0.1,19.6L27,51.2z"/>
<path class="st1" d="M40.3,37.9L51.2,27l-11-11l-1.1,1.1c-5.4,5.4-5.4,14.1,0.1,19.6L40.3,37.9z"/>
<path class="st1" d="M13.6,15.9l-11,11l10.9,10.9l1.1-1.1c5.4-5.4,5.4-14.1,0-19.5L13.6,15.9L13.6,15.9z"/>
<path class="st1" d="M26.8,2.7L15.9,13.6l10.9,10.9l1.1-1.1c5.4-5.4,5.4-14.1,0-19.5C28,3.8,26.8,2.7,26.8,2.7z"/>
</svg>
