<svg viewBox="0 0 1007.8 103.9" preserveAspectRatio="none" xmlns="http://www.w3.org/2000/svg">
    
    <!-- Trazado principal de la ola, relleno blanco (#FFFFFF). -->
    <path fill="#FFFFFF" d="M1008,128.2v-49V54.4V17.6C820.6,15.2,627.4,57.2,439,76.9c-25.2,2.6-50.3,4.8-75.3,6.5c-82.3,5.5-163.5,4.9-242.4-7.6c-10.1-1.6-19.5-3.3-28.6-5.2C56.4,63,27.5,53.1,0.1,42.1v18.6v36.2v73.8h582.1c4.8,0.3,9.5,0.6,14.3,0.9c16.2,0.9,32.5,1.6,48.9,2c21.9,0.6,43.9,0.9,65.9,1.2c58.8,0.6,118.4,0.6,176-4.1H1008v-19.4c0.1,0,0.1,0,0.2,0v-7.1v-15.9C1008.1,128.2,1008,128.2,1008,128.2"/>
    
    <!-- Este es el segundo trazado, con 43% de opacidad, para darle un sutil efecto de profundidad. -->
    <path fill="#FFFFFF" opacity="0.43" d="M523.4,65.2C614.3,92,702.3,130.7,795.9,144c39.2,5.5,193.8,21,283.7-19.6c29.9-13.5,75.9-51.1,86-68.6c12.4,49.6,7.5,105.1,7.6,156.3c0,13.4-0.5,27.3-5.6,39.6c-12.4,29.7-46.8,41.5-77.7,47.5c-121.7,23.9-246.9,9.7-370.7,5.9c-149.1-4.5-298.1,6.3-447.1,13.2c-68.4,3.2-137.6,5.5-204.5-9.1C0.7,294.6-64.6,261.2-105.5,204.8c-21.9-30.2-44.2-87.1-17.6-121.3c21.3-27.4,71-30.8,101.7-37.4c115.9-25,235.1-31.8,353-19.1C396.5,33.9,460.8,46.7,523.4,65.2"/>

</svg>
