<?xml version="1.0" encoding="UTF-8"?>
<svg xmlns="http://www.w3.org/2000/svg" width="13" height="15" viewBox="0 0 13 15" fill="none">
    <g clip-path="url(#clip0_1320_14716)">
        <path d="M11.8393 8.05694C12.167 7.72922 12.167 7.19701 11.8393 6.86929L7.64452 2.6745C7.3168 2.34678 6.78458 2.34678 6.45686 2.6745C6.12915 3.00222 6.12915 3.53443 6.45686 3.86215L9.22281 6.62547H1.17929C0.715242 6.62547 0.340332 7.00038 0.340332 7.46443C0.340332 7.92848 0.715242 8.30339 1.17929 8.30339H9.22018L6.45949 11.0667C6.13177 11.3944 6.13177 11.9266 6.45949 12.2544C6.7872 12.5821 7.31942 12.5821 7.64714 12.2544L11.8419 8.05956L11.8393 8.05694Z" fill="white"/>
    </g>
    <defs>
        <clipPath id="clip0_1320_14716">
            <rect width="11.7454" height="13.4233" fill="white" transform="translate(0.34082 0.75293)"/>
        </clipPath>
    </defs>
</svg>