<?xml version="1.0" encoding="utf-8"?>
<!-- Generator: Adobe Illustrator 27.2.0, SVG Export Plug-In . SVG Version: 6.00 Build 0)  -->
<svg version="1.1" id="Capa_1" xmlns="http://www.w3.org/2000/svg" xmlns:xlink="http://www.w3.org/1999/xlink" x="0px" y="0px"
	 viewBox="0 0 13 15" style="enable-background:new 0 0 13 15;" xml:space="preserve">
<style type="text/css">
	.st0{clip-path:url(#SVGID_00000157281127566628488360000011355440206068582545_);}
	.st1{fill:#FFFFFF;}
</style>
<g>
	<defs>
		<rect id="SVGID_1_" x="0.3" y="0.8" width="11.7" height="13.4"/>
	</defs>
	<clipPath id="SVGID_00000129168825744106004310000002412508669489478553_">
		<use xlink:href="#SVGID_1_"  style="overflow:visible;"/>
	</clipPath>
	<g style="clip-path:url(#SVGID_00000129168825744106004310000002412508669489478553_);">
		<path class="st1" d="M0.6,8.1c-0.3-0.3-0.3-0.9,0-1.2l4.2-4.2c0.3-0.3,0.9-0.3,1.2,0C6.3,3,6.3,3.5,6,3.9L3.2,6.6h8
			c0.5,0,0.8,0.4,0.8,0.8c0,0.5-0.4,0.8-0.8,0.8h-8L6,11.1c0.3,0.3,0.3,0.9,0,1.2c-0.3,0.3-0.9,0.3-1.2,0L0.6,8.1L0.6,8.1z"/>
	</g>
</g>
</svg>
