<svg width="16" height="17" viewBox="0 0 16 17" fill="none" xmlns="http://www.w3.org/2000/svg">
<g clip-path="url(#clip0_2658_951)">
<path d="M9.50186 1.25C9.50186 1.66562 9.8363 2 10.252 2H13.4433L6.47001 8.96875C6.17621 9.2625 6.17621 9.7375 6.47001 10.0281C6.76382 10.3187 7.23891 10.3219 7.5296 10.0281L14.4997 3.05938V6.25C14.4997 6.66563 14.8341 7 15.2499 7C15.6656 7 16 6.66563 16 6.25V1.25C16 0.834375 15.6656 0.5 15.2499 0.5H10.252C9.8363 0.5 9.50186 0.834375 9.50186 1.25ZM2.25044 1.5C1.00645 1.5 0 2.50625 0 3.75V14.25C0 15.4937 1.00645 16.5 2.25044 16.5H12.7525C13.9965 16.5 15.0029 15.4937 15.0029 14.25V10.25C15.0029 9.83438 14.6685 9.5 14.2528 9.5C13.8371 9.5 13.5026 9.83438 13.5026 10.25V14.25C13.5026 14.6656 13.1682 15 12.7525 15H2.25044C1.83473 15 1.50029 14.6656 1.50029 14.25V3.75C1.50029 3.33437 1.83473 3 2.25044 3H6.25122C6.66693 3 7.00137 2.66563 7.00137 2.25C7.00137 1.83438 6.66693 1.5 6.25122 1.5H2.25044Z" fill="#fff"/>
</g>
<defs>
<clipPath id="clip0_2658_951">
<rect width="16" height="16" fill="white" transform="translate(0 0.5)"/>
</clipPath>
</defs>
</svg>
